<?xml version="1.0" encoding="UTF-8" standalone="no"?>
<svg width="373px" height="249px" viewBox="0 0 373 249" version="1.1" xmlns="http://www.w3.org/2000/svg" xmlns:xlink="http://www.w3.org/1999/xlink" xmlns:sketch="http://www.bohemiancoding.com/sketch/ns">
    <!-- Generator: Sketch 3.3.2 (12043) - http://www.bohemiancoding.com/sketch -->
    <title>carcamp-logo</title>
    <desc>Created with Sketch.</desc>
    <defs></defs>
    <g id="Page-1" stroke="none" stroke-width="1" fill="none" fill-rule="evenodd" sketch:type="MSPage">
        <g id="Desktop---Homepage-1-2" sketch:type="MSArtboardGroup" transform="translate(-527.000000, -216.000000)" fill="#FFFFFF">
            <g id="Hero-" sketch:type="MSLayerGroup">
                <g id="carcamp-logo" transform="translate(527.000000, 215.000000)" sketch:type="MSShapeGroup">
                    <path d="M195.039036,2.03465487 C202.743262,0.159929204 213.553601,0.770769912 220.236518,5.36873451 C226.901673,9.95115044 244.095196,22.2012832 243.353637,55.3710442 C242.72753,83.2897965 231.848363,94.0983451 226.069083,98.9162124 C214.823577,108.292062 192.956452,107.250301 180.043548,98.5008407 C180.043548,98.5008407 201.286786,98.0832478 201.495488,86.8326726 C201.70197,75.5820973 177.960964,84.3337788 177.960964,84.3337788 C177.960964,84.3337788 159.843821,86.4150796 158.385125,79.3337699 C158.385125,79.3337699 170.256738,77.0414513 170.46544,69.1227345 C170.880625,65.1644867 169.428589,62.043646 164.841577,57.4545664 C160.885113,53.4963186 154.222179,53.4963186 151.930893,54.7468761 C149.639607,55.9974336 151.098304,55.1622478 145.683143,61.4150354 C140.267982,67.6656018 133.605048,63.707354 133.605048,63.707354 L126.524708,58.7073451 C148.807018,60.788646 142.976673,46.4127876 143.60056,41.8281504 C143.964679,39.156 147.945565,28.0431416 159.011232,36.4127699 C184.626119,55.7886372 185.884994,38.4185487 185.667411,33.7028584 C185.161196,22.6943982 179.837065,19.5357965 164.426393,21.4127434 C164.182167,21.4416195 168.382857,5.99512389 180.460952,9.53577876 C188.507095,11.8947345 203.578071,22.6610796 208.158423,12.6610619 C209.199714,8.4940177 198.371613,3.70280531 198.371613,3.70280531 L195.039036,2.03465487" id="Fill-1"></path>
                    <path d="M147.139619,230.162558 C147.139619,230.751186 147.33278,231.239858 147.721321,231.630796 C148.107643,232.021735 148.620518,232.35492 149.259946,232.630354 C149.899375,232.905788 150.623173,233.145681 151.43578,233.350035 C152.246167,233.554389 153.074315,233.765407 153.926887,233.983088 C154.775018,234.202991 155.607607,234.45177 156.415774,234.729425 C157.226161,235.011522 157.949958,235.360257 158.589387,235.784513 C159.228815,236.20877 159.743911,236.726319 160.130232,237.337159 C160.516554,237.950221 160.711935,238.698779 160.711935,239.580611 C160.711935,240.382478 160.565399,241.148805 160.274548,241.87515 C159.981476,242.603717 159.581833,243.281195 159.073399,243.912027 C158.564964,244.542858 157.9655,245.127044 157.268345,245.669027 C156.575631,246.208788 155.82519,246.688575 155.019244,247.108389 C154.215518,247.525982 153.369607,247.888044 152.483732,248.192354 C151.597857,248.498885 150.707542,248.734336 149.810565,248.905372 C148.553911,249.140823 147.328339,249.236336 146.142732,249.187469 C144.954905,249.138602 143.898071,248.925363 142.972232,248.554416 C142.046393,248.179027 141.304833,247.632602 140.743113,246.91292 C140.188054,246.193239 139.908304,245.282531 139.908304,244.176354 C139.908304,243.605496 140.010435,243.083504 140.216917,242.614823 C140.421179,242.141699 140.680946,241.732991 140.985119,241.384257 C141.293732,241.037743 141.626768,240.755646 141.990887,240.540186 C142.350565,240.326947 142.690262,240.18923 143.003315,240.131478 C143.32303,240.071504 143.593899,240.095938 143.809262,240.211442 C144.026845,240.326947 144.135637,240.549071 144.135637,240.880035 C144.135637,241.03108 144.113435,241.195451 144.077911,241.370929 C144.037946,241.548628 143.995762,241.741876 143.953577,241.950673 C143.911393,242.159469 143.866988,242.388257 143.831464,242.634814 C143.7915,242.883593 143.773738,243.150142 143.773738,243.43446 C143.773738,244.058628 143.931375,244.569513 144.25331,244.962673 C144.573024,245.355832 144.99931,245.651257 145.532167,245.844504 C146.065024,246.037752 146.67781,246.14215 147.372744,246.153257 C148.063238,246.166584 148.780375,246.102168 149.524155,245.96223 C150.401149,245.797858 151.273702,245.537973 152.150696,245.187018 C153.02769,244.836062 153.813655,244.411805 154.508589,243.914248 C155.201304,243.418912 155.765244,242.865823 156.19819,242.254982 C156.628917,241.644142 156.84872,240.993319 156.84872,240.306956 C156.84872,239.676124 156.653339,239.145248 156.267018,238.720991 C155.878476,238.294513 155.365601,237.93023 154.726173,237.628142 C154.086744,237.323832 153.360726,237.063947 152.543679,236.841823 C151.728851,236.62192 150.896262,236.399796 150.054792,236.175451 C149.206661,235.951106 148.380732,235.704549 147.565905,235.435779 C146.751077,235.164788 146.02506,234.836044 145.390071,234.447327 C144.750643,234.060832 144.239988,233.589929 143.853667,233.034619 C143.465125,232.47931 143.274185,231.799611 143.274185,230.997743 C143.274185,230.249186 143.478446,229.469531 143.88253,228.665442 C144.291054,227.861354 144.90606,227.095027 145.725327,226.362018 C146.544595,225.633451 147.565905,224.973743 148.791476,224.387336 C150.017048,223.798708 151.453542,223.350018 153.103179,223.039044 C154.148911,222.843575 155.174661,222.788044 156.175988,222.874673 C157.177315,222.963522 158.069851,223.187867 158.855815,223.547708 C159.63956,223.907549 160.270107,224.396221 160.751899,225.009283 C161.22925,225.622345 161.466815,226.357575 161.466815,227.214973 C161.466815,227.723637 161.369125,228.261177 161.171524,228.834257 C160.976143,229.405115 160.663089,230.020398 160.227923,230.682327 C159.808298,231.324265 159.344268,231.828487 158.849155,232.19277 C158.349601,232.559274 157.898893,232.779177 157.49703,232.854699 C157.195077,232.912451 156.948631,232.879133 156.75769,232.761407 C156.56675,232.64146 156.47128,232.426 156.47128,232.115027 C156.47128,231.881796 156.531226,231.597478 156.653339,231.25985 C156.775452,230.92 156.981935,230.517956 157.277226,230.053717 C157.552536,229.61169 157.756798,229.205204 157.887792,228.836478 C158.021006,228.469973 158.085393,228.139009 158.085393,227.845805 C158.085393,227.392673 157.947738,227.019504 157.667988,226.730743 C157.390458,226.439761 157.006357,226.224301 156.520125,226.084363 C156.029452,225.946646 155.44331,225.88223 154.755036,225.895558 C154.068982,225.908885 153.316321,225.993292 152.499274,226.146558 C151.593417,226.317593 150.805232,226.557487 150.13694,226.866239 C149.466429,227.174991 148.909149,227.517062 148.460661,227.89023 C148.009952,228.265619 147.679137,228.649894 147.463774,229.047496 C147.24619,229.442876 147.139619,229.816044 147.139619,230.162558" id="Fill-2"></path>
                    <path d="M173.305125,232.459319 C173.598196,232.921336 173.81578,233.427779 173.960095,233.974204 C174.106631,234.52285 174.179899,235.155903 174.179899,235.880027 C174.179899,236.404239 174.115512,236.946221 173.984518,237.508195 C173.853524,238.067947 173.664804,238.618814 173.418357,239.165239 C173.171911,239.709442 172.869958,240.235876 172.5125,240.737876 C172.155042,241.244319 171.748738,241.697451 171.289149,242.106159 C170.83178,242.512646 170.330006,242.861381 169.788268,243.152363 C169.24431,243.441124 168.664827,243.643257 168.049821,243.758761 C167.163946,243.925354 166.406845,243.896478 165.778518,243.672133 C165.15019,243.447788 164.632875,243.094611 164.231012,242.619265 C163.829149,242.141699 163.533857,241.573062 163.347357,240.913354 C163.160857,240.253646 163.067607,239.567283 163.067607,238.852044 C163.067607,237.677009 163.234125,236.630805 163.567161,235.717876 C163.897976,234.802726 164.375327,233.974204 164.992554,233.230088 C165.612,232.483752 166.369101,231.846257 167.266077,231.317602 C168.160833,230.786726 169.168821,230.418 170.285601,230.209204 C171.240304,230.027062 172.13728,229.989301 172.972089,230.09592 C173.806899,230.20254 174.590643,230.406894 175.321101,230.711204 C176.049339,231.013292 176.730952,231.441991 177.35928,231.992858 C177.987607,232.541504 178.57375,233.067938 179.117708,233.572159 L178.831298,235.511301 C178.560429,235.242531 178.191869,234.964876 177.727839,234.676115 C177.26603,234.389575 176.775357,234.067496 176.255821,233.709876 C175.738506,233.352257 175.227851,233.063496 174.723857,232.841372 C174.222083,232.619248 173.786917,232.437106 173.425018,232.290504 L173.305125,232.459319 L173.305125,232.459319 Z M168.640405,241.082168 C168.982321,241.015531 169.313137,240.800071 169.637292,240.431345 C169.957006,240.062619 170.238976,239.622814 170.480982,239.109708 C170.722988,238.594381 170.916149,237.992425 171.062685,237.301619 C171.20922,236.610814 171.282488,236.006637 171.282488,235.489088 C171.282488,235.078159 171.246964,234.704991 171.175917,234.365142 C171.104869,234.025292 171.000518,233.740973 170.858423,233.509965 C170.716327,233.276735 170.536488,233.105699 170.314464,232.996858 C170.09244,232.885796 169.826012,232.861363 169.515179,232.919115 C169.102214,232.996858 168.709232,233.227867 168.338452,233.60992 C167.965452,233.991973 167.636857,234.45177 167.357107,234.991531 C167.075137,235.529071 166.853113,236.108814 166.691036,236.726319 C166.531179,237.346044 166.45125,238.023522 166.45125,238.765416 C166.45125,239.138584 166.491214,239.482876 166.571143,239.798292 C166.651071,240.111487 166.775405,240.378035 166.948583,240.589053 C167.119542,240.802292 167.346006,240.957779 167.627976,241.051071 C167.909946,241.144363 168.247423,241.155469 168.640405,241.082168 L168.640405,241.082168 Z" id="Fill-3"></path>
                    <path d="M188.387202,227.468195 C188.387202,227.708088 188.378321,228.039053 188.36056,228.456646 C188.342798,228.87646 188.280631,229.338478 188.18072,229.849363 C188.076369,230.358027 187.952036,230.975531 187.8055,231.699655 C187.658964,232.423779 187.539071,233.021292 187.443601,233.494416 C187.348131,233.96754 187.263762,234.382912 187.192714,234.73831 C187.119446,235.091487 187.083923,235.346929 187.083923,235.502416 C187.083923,235.753416 187.088363,235.982204 187.095024,236.191 C187.106125,236.399796 187.130548,236.577496 187.174952,236.726319 C187.217137,236.877363 187.285964,236.983982 187.376994,237.050619 C187.468024,237.119478 187.601238,237.137248 187.776637,237.103929 C187.99644,237.061726 188.26731,236.96177 188.582583,236.804062 C188.902298,236.646354 189.237554,236.450885 189.595012,236.217655 C189.95247,235.984425 190.316589,235.728982 190.689589,235.446885 C191.062589,235.167009 191.417827,234.878248 191.753083,234.585044 C192.09278,234.287398 192.396952,233.998637 192.674482,233.718761 C192.952012,233.438885 193.176256,233.183442 193.347214,232.954655 C193.347214,233.25008 193.349435,233.51885 193.356095,233.758743 C193.360536,233.998637 193.362756,234.229646 193.362756,234.447327 C193.362756,234.66723 193.364976,234.893796 193.369417,235.124805 C193.373857,235.358035 193.378298,235.615699 193.378298,235.902239 C193.156274,236.13769 192.880964,236.395354 192.554589,236.677451 C192.228214,236.959549 191.864095,237.246088 191.466673,237.541513 C191.06925,237.836938 190.647405,238.12792 190.198917,238.41446 C189.750429,238.701 189.29972,238.963106 188.849012,239.203 C188.393863,239.440673 187.952036,239.647248 187.52131,239.820504 C187.088363,239.995982 186.6865,240.11815 186.31794,240.187009 C185.94272,240.258088 185.618565,240.251425 185.352137,240.169239 C185.085708,240.087053 184.854804,239.947115 184.663863,239.744982 C184.470702,239.545071 184.306405,239.29185 184.17319,238.98754 C184.039976,238.68323 183.924524,238.338938 183.824613,237.952442 C183.460494,238.434451 183.078613,238.887584 182.67675,239.311841 C182.272667,239.733876 181.861923,240.113708 181.444518,240.446894 C181.024893,240.78008 180.603048,241.059956 180.172321,241.284301 C179.746036,241.510867 179.330851,241.661912 178.926768,241.737434 C178.595952,241.799628 178.285119,241.810735 177.994268,241.76631 C177.703417,241.724106 177.445869,241.606381 177.219405,241.417575 C176.995161,241.22877 176.817542,240.957779 176.686548,240.602381 C176.555554,240.249204 176.491167,239.791628 176.491167,239.229655 C176.500048,238.061283 176.602179,237.146133 176.793119,236.486425 C177.092851,235.520186 177.374821,234.109699 177.634589,232.259407 C177.663452,232.123912 177.701196,231.935106 177.747821,231.699655 C177.794446,231.461982 177.867714,231.199876 177.963185,230.913336 C178.058655,230.629018 178.176327,230.335814 178.318423,230.031504 C178.458298,229.731637 178.622595,229.44954 178.815756,229.189655 C179.006696,228.931991 179.23094,228.705425 179.488488,228.514398 C179.743815,228.325593 180.032446,228.19454 180.356601,228.125681 C180.889458,228.047938 181.271339,228.050159 181.504464,228.139009 C181.735369,228.225637 181.850821,228.365575 181.850821,228.558823 C181.759792,229.176327 181.657661,229.771619 181.544429,230.349142 C181.431196,230.924442 181.320185,231.504186 181.204732,232.088372 C181.0915,232.674779 180.962726,233.323381 180.822851,234.038619 C180.682976,234.753858 180.571964,235.326938 180.487595,235.76008 C180.403226,236.191 180.334399,236.539735 180.283333,236.806283 C180.230048,237.072832 180.205625,237.210549 180.205625,237.219434 C180.205625,237.383805 180.221167,237.541513 180.258911,237.683673 C180.292214,237.830274 180.34772,237.956885 180.416548,238.061283 C180.487595,238.167903 180.578625,238.247867 180.689637,238.301177 C180.800649,238.354487 180.931643,238.365593 181.082619,238.336717 C181.306863,238.294513 181.533327,238.199 181.764232,238.052398 C181.997357,237.903575 182.21494,237.712549 182.416982,237.474876 C182.627905,237.252752 182.816625,236.981761 182.976482,236.659681 C183.14078,236.348708 183.260673,235.997752 183.340601,235.611257 L185.00578,228.010177 C185.054625,227.788053 185.250006,227.570372 185.596363,227.357133 C185.9405,227.146115 186.331262,226.999513 186.770869,226.917327 C187.263762,226.824035 187.658964,226.830699 187.949815,226.935097 C188.242887,227.041717 188.387202,227.219416 188.387202,227.468195" id="Fill-4"></path>
                    <path d="M204.241923,233.94977 C203.276119,234.63169 202.412446,235.231425 201.657565,235.746752 C200.900464,236.264301 200.227732,236.701885 199.639369,237.063947 C199.048786,237.426009 198.52481,237.710327 198.06522,237.921345 C197.607851,238.132363 197.190446,238.272301 196.817446,238.343381 C196.055905,238.487761 195.387613,238.407796 194.805911,238.107929 C194.226429,237.805841 193.740196,237.308283 193.349435,236.608593 C192.958673,235.913345 192.667821,235.033735 192.47022,233.974204 C192.27706,232.914673 192.179369,231.697434 192.179369,230.324708 C192.179369,229.789389 192.203792,229.214088 192.252637,228.598805 C192.303702,227.983522 192.37253,227.368239 192.46356,226.755177 C192.159387,226.772947 191.921821,226.779611 191.755304,226.775168 C191.588786,226.772947 191.411167,226.770726 191.224667,226.772947 C191.035946,226.772947 190.798381,226.781832 190.50975,226.795159 C190.221119,226.810708 189.801494,226.839584 189.255315,226.881788 C189.01331,226.899558 188.824589,226.877345 188.693595,226.817372 C188.562601,226.757398 188.464911,226.677434 188.404964,226.573035 C188.345018,226.470858 188.309494,226.357575 188.298393,226.235407 C188.287292,226.113239 188.282851,226.008841 188.282851,225.919991 C188.282851,225.777832 188.382762,225.653442 188.578143,225.542381 C188.775744,225.429097 189.028851,225.32692 189.337464,225.231407 C189.646077,225.138115 189.985774,225.053708 190.354333,224.978186 C190.725113,224.904885 191.078131,224.840469 191.417827,224.784938 C191.755304,224.731628 192.059476,224.68054 192.328125,224.633894 C192.594554,224.589469 192.781054,224.547265 192.880964,224.509504 C193.151833,223.258947 193.49597,222.032823 193.913375,220.828912 C194.33078,219.627221 194.79703,218.538814 195.316565,217.56369 C195.833881,216.593009 196.397821,215.782257 197.010607,215.140319 C197.625613,214.493938 198.267262,214.109664 198.942214,213.983053 C199.37294,213.900867 199.770363,213.931965 200.127821,214.080788 C200.48528,214.227389 200.789452,214.453956 201.040339,214.762708 C201.293446,215.07146 201.486607,215.451292 201.622042,215.902204 C201.759696,216.353115 201.826304,216.837345 201.826304,217.354894 C201.826304,217.781372 201.755256,218.245611 201.615381,218.747611 C201.473286,219.247389 201.282345,219.769381 201.040339,220.30692 C200.798333,220.84446 200.516363,221.397549 200.187768,221.966186 C199.861393,222.532602 199.515036,223.099018 199.153137,223.665434 C199.244167,223.616566 199.395143,223.583248 199.606065,223.561035 C199.819208,223.541044 200.061214,223.507726 200.338744,223.46108 C200.616274,223.416655 200.916006,223.367788 201.23794,223.314478 C201.559875,223.258947 201.870708,223.21008 202.172661,223.161212 C202.476833,223.112345 202.756583,223.070142 203.018571,223.030159 C203.28056,222.987956 203.498143,222.956858 203.666881,222.934646 C203.871143,222.90577 204.015458,222.979071 204.106488,223.147885 C204.197518,223.321142 204.241923,223.549929 204.241923,223.83869 C204.241923,224.169655 204.142012,224.460637 203.93997,224.709416 C203.737929,224.955973 203.518125,225.102575 203.276119,225.147 L197.470196,226.23985 C197.177125,226.650779 196.881833,227.057265 196.584321,227.457088 C196.284589,227.856912 196.00928,228.218973 195.756173,228.541053 C195.716208,229.103027 195.680685,229.651673 195.649601,230.193655 C195.64072,230.426885 195.631839,230.666779 195.620738,230.913336 C195.611857,231.159894 195.600756,231.40423 195.591875,231.648566 C195.580774,231.890681 195.571893,232.123912 195.567452,232.348257 C195.563012,232.572602 195.560792,232.776956 195.560792,232.96354 C195.560792,233.445549 195.611857,233.840929 195.711768,234.154124 C195.813899,234.462876 195.960435,234.704991 196.151375,234.878248 C196.342315,235.051504 196.579881,235.160345 196.85519,235.200327 C197.13494,235.24031 197.445774,235.229204 197.789911,235.164788 C198.000833,235.124805 198.265042,235.031513 198.582536,234.88269 C198.89781,234.733867 199.246387,234.545062 199.623827,234.318496 C200.003488,234.091929 200.400911,233.832044 200.818315,233.538841 C201.23794,233.245637 201.648685,232.934664 202.057208,232.603699 C202.467952,232.272735 202.856494,231.932885 203.229494,231.581929 C203.602494,231.228752 203.93997,230.877796 204.241923,230.526841 L204.241923,233.94977 L204.241923,233.94977 Z M199.410685,217.927973 C199.410685,217.830239 199.401804,217.721398 199.388482,217.605894 C199.37294,217.490389 199.339637,217.381549 199.290792,217.286035 C199.237506,217.188301 199.159798,217.115 199.053226,217.063912 C198.946655,217.010602 198.800119,217.003938 198.609179,217.039478 C198.34497,217.090566 198.080762,217.343788 197.812113,217.801363 C197.543464,218.258938 197.285917,218.827575 197.03947,219.505053 C196.790804,220.184752 196.557679,220.926646 196.342315,221.728513 C196.124732,222.530381 195.924911,223.307814 195.742851,224.056372 C195.893827,224.043044 196.047024,224.025274 196.198,224.007504 C196.348976,223.987513 196.504393,223.969743 196.66647,223.954195 C196.970643,223.447752 197.285917,222.901327 197.614512,222.31492 C197.943107,221.728513 198.238399,221.157655 198.502607,220.602345 C198.762375,220.047035 198.979958,219.531708 199.153137,219.058584 C199.324095,218.58546 199.410685,218.210071 199.410685,217.927973 L199.410685,217.927973 Z" id="Fill-5"></path>
                    <path d="M208.289417,228.016841 C208.702381,227.445982 209.16419,226.826257 209.677065,226.162106 C210.18994,225.497956 210.878214,224.713858 211.737446,223.809814 C212.598899,222.90577 213.302714,222.241619 213.853333,221.810699 C214.401732,221.384221 214.916827,221.124336 215.400839,221.033265 C215.520732,221.011053 215.656167,221.004389 215.807143,221.017717 C215.960339,221.031044 216.102435,221.07769 216.237869,221.162097 C216.373304,221.244283 216.486536,221.375336 216.577565,221.555257 C216.668595,221.732956 216.71522,221.975071 216.71522,222.286044 C216.71522,222.903549 216.61753,223.521053 216.426589,224.145221 C216.235649,224.767168 215.87153,225.544602 215.340893,226.481965 C214.805815,227.417106 214.446137,228.207867 214.259637,228.852027 C214.073137,229.496186 213.979887,230.147009 213.979887,230.811159 C213.979887,231.175442 214.042054,231.453097 214.161946,231.648566 C214.28406,231.844035 214.439476,231.924 214.630417,231.88846 C214.870202,231.844035 215.12775,231.748522 215.400839,231.608584 C215.671708,231.466425 215.944798,231.299832 216.215667,231.104363 C216.486536,230.908894 216.755185,230.693434 217.014952,230.460204 C217.27694,230.226973 217.523387,229.989301 217.756512,229.744965 C218.309351,229.182991 218.85331,228.558823 219.386167,227.87246 L219.643714,231.384239 C219.461655,231.535283 219.23297,231.72631 218.95544,231.952876 C218.680131,232.181664 218.371518,232.426 218.034042,232.685885 C217.698786,232.94577 217.332446,233.212319 216.939464,233.487752 C216.546482,233.763186 216.1535,234.014186 215.756077,234.245195 C215.356435,234.473982 214.959012,234.678336 214.561589,234.851593 C214.164167,235.029292 213.784506,235.149239 213.422607,235.218097 C212.856446,235.324717 212.363554,235.291398 211.946149,235.120363 C211.528744,234.947106 211.186827,234.693885 210.920399,234.356257 C210.65175,234.023071 210.449708,233.636575 210.316494,233.203434 C210.18328,232.768071 210.116673,232.348257 210.116673,231.94177 C210.116673,231.653009 210.158857,231.322044 210.249887,230.948876 C210.338696,230.577929 210.447488,230.200319 210.578482,229.816044 C210.709476,229.429549 210.858232,229.049717 211.018089,228.67877 C211.180167,228.305602 211.333363,227.970195 211.475458,227.67477 C211.617554,227.377124 211.739667,227.132788 211.844018,226.941761 C211.948369,226.750735 212.017196,226.639673 212.04828,226.606354 L211.730786,226.626345 C211.559827,226.755177 211.271196,227.055044 210.862673,227.530389 C210.454149,228.003513 209.99678,228.58992 209.481685,229.291832 C208.96881,229.991522 208.435952,230.771177 207.889774,231.628575 C207.339155,232.483752 206.844042,233.354478 206.402214,234.242973 C206.18019,234.680558 205.998131,235.060389 205.858256,235.382469 C205.716161,235.704549 205.578506,235.968876 205.443071,236.17323 C205.307637,236.379805 205.158881,236.541956 204.996804,236.666345 C204.834726,236.788513 204.630464,236.87292 204.379577,236.919566 C204.044321,236.983982 203.784554,236.952885 203.593613,236.828496 C203.400452,236.706327 203.256137,236.521965 203.154006,236.277628 C203.054095,236.033292 202.989708,235.746752 202.958625,235.418009 C202.927542,235.087044 202.91422,234.747195 202.91422,234.394018 C202.91422,233.783177 202.920881,232.98131 202.936423,231.986195 C202.951964,230.99108 203.00081,229.884903 203.080738,228.663221 C203.158446,227.443761 203.307202,226.166549 203.520345,224.833805 C203.733488,223.501062 203.946631,222.174982 204.157554,220.855566 C204.368476,219.53615 204.68375,218.258938 205.101155,217.023929 C205.52078,215.78892 206.029214,214.67608 206.628679,213.683186 C207.228143,212.690292 207.931958,211.859549 208.737905,211.190956 C209.543851,210.520142 210.471911,210.087 211.519863,209.88931 C212.061601,209.787133 212.507869,209.776027 212.856446,209.85377 C213.202804,209.931513 213.480333,210.080336 213.686815,210.30246 C213.893298,210.522363 214.035393,210.808903 214.115321,211.157637 C214.19747,211.50415 214.237435,211.901752 214.237435,212.350442 C214.237435,213.016814 214.130863,213.776478 213.91994,214.624991 C213.709018,215.475726 213.429268,216.370885 213.082911,217.308248 C212.734333,218.247832 212.339131,219.207407 211.897304,220.184752 C211.453256,221.16654 211.002548,222.119451 210.538518,223.047929 C210.074488,223.978628 209.619339,224.858239 209.173071,225.688982 C208.724583,226.521947 208.329381,227.252735 207.985244,227.883566 L208.289417,228.016841 L208.289417,228.016841 Z M209.62822,219.351788 C210.223244,217.874664 210.65397,216.644097 210.922619,215.657867 C211.191268,214.671637 211.322262,213.956398 211.322262,213.509929 C211.322262,212.832451 211.21569,212.514814 211.002548,212.554796 C210.74056,212.603664 210.352018,213.054575 209.839143,213.909752 C209.326268,214.764929 208.722363,215.977726 208.025208,217.552584 C207.85647,218.074575 207.696613,218.612115 207.550077,219.165204 C207.405762,219.718292 207.29031,220.266938 207.20372,220.806699 C207.119351,221.34646 207.032762,221.877336 206.950613,222.399327 C206.868464,222.92354 206.790756,223.416655 206.717488,223.878673 C206.495464,224.978186 206.326726,226.044381 206.209054,227.081699 C206.482143,226.468637 206.779655,225.802265 207.101589,225.080363 C207.423524,224.360681 207.743238,223.647664 208.056292,222.943531 C208.369345,222.237177 208.664637,221.573027 208.939946,220.944416 C209.217476,220.318027 209.448381,219.78715 209.62822,219.351788 L209.62822,219.351788 Z" id="Fill-6"></path>
                    <path d="M235.192042,227.805823 C234.958917,228.139009 234.650304,228.534389 234.263982,228.994186 C233.87544,229.456204 233.440274,229.907115 232.958482,230.349142 C232.47447,230.793389 231.954935,231.186549 231.402095,231.535283 C230.847036,231.881796 230.296417,232.108363 229.741357,232.212761 C229.073065,232.339372 228.513565,232.257186 228.067298,231.963982 C227.62325,231.673 227.234708,231.202097 226.910554,230.549053 C226.668548,230.842257 226.368815,231.148788 226.013577,231.470867 C225.658339,231.795168 225.269798,232.099478 224.847952,232.386018 C224.428327,232.672558 223.98872,232.923558 223.531351,233.14346 C223.076202,233.361142 222.618833,233.514407 222.161464,233.598814 C221.679673,233.689885 221.208982,233.692106 220.751613,233.603257 C220.292024,233.514407 219.88794,233.336708 219.537143,233.074602 C219.184125,232.814717 218.902155,232.465982 218.691232,232.035062 C218.478089,231.599699 218.373738,231.088814 218.373738,230.495743 C218.373738,229.829372 218.48031,229.125239 218.691232,228.383345 C218.904375,227.641451 219.23297,226.819593 219.679238,225.919991 C220.125506,225.018168 220.602857,224.222965 221.115732,223.529938 C221.626387,222.839133 222.185887,222.212743 222.792012,221.655212 C223.400357,221.09546 224.039786,220.622336 224.714738,220.233619 C225.38747,219.847124 226.073524,219.585018 226.772899,219.453965 C227.006024,219.40954 227.188083,219.416204 227.319077,219.471735 C227.450071,219.529487 227.558863,219.600566 227.645452,219.687195 C227.732042,219.776044 227.816411,219.860451 227.896339,219.944858 C227.976268,220.029265 228.078399,220.080354 228.200512,220.104788 C228.320405,220.124779 228.446958,220.131442 228.571292,220.122558 C228.697845,220.111451 228.828839,220.093681 228.959833,220.069248 C229.070845,220.047035 229.184077,220.024823 229.30175,219.998168 C229.419423,219.971513 229.530435,219.94708 229.643667,219.927088 C229.794643,219.898212 229.936738,219.884885 230.067732,219.887106 C230.200946,219.889327 230.316399,219.927088 230.41631,219.995947 C230.51844,220.067027 230.596149,220.18031 230.651655,220.331354 C230.707161,220.482398 230.736024,220.697858 230.736024,220.977735 C230.736024,221.404212 230.684958,221.886221 230.585048,222.423761 C230.482917,222.961301 230.367464,223.516611 230.23869,224.087469 C230.107696,224.656106 229.961161,225.304708 229.794643,226.033274 C229.628125,226.761841 229.543756,227.366018 229.543756,227.843584 C229.543756,228.252292 229.588161,228.563265 229.67253,228.778726 C229.756899,228.991965 229.941179,229.071929 230.223149,229.018619 C230.436292,228.978637 230.658315,228.892009 230.88922,228.754292 C231.120125,228.618796 231.35547,228.452204 231.590815,228.258956 C231.826161,228.063487 232.063726,227.850248 232.299071,227.614796 C232.536637,227.379345 232.760881,227.141673 232.974024,226.899558 C233.466917,226.328699 233.96425,225.695646 234.468244,225.000398 L235.192042,227.805823 L235.192042,227.805823 Z M222.239173,229.196319 C222.239173,229.427327 222.256935,229.64723 222.292458,229.856027 C222.325762,230.067044 222.387929,230.246965 222.481179,230.40023 C222.572208,230.553496 222.692101,230.666779 222.843077,230.746743 C222.994054,230.822265 223.187214,230.837814 223.418119,230.795611 C223.791119,230.724531 224.128595,230.517956 224.432768,230.173664 C224.7325,229.829372 224.996708,229.436212 225.216512,228.989743 C225.440756,228.543274 225.618375,228.092363 225.75381,227.637009 C225.891464,227.179434 225.980274,226.804044 226.020238,226.508619 L227.145899,221.950637 C226.732935,222.028381 226.328851,222.194973 225.938089,222.450416 C225.545107,222.705858 225.174327,223.021274 224.82797,223.394442 C224.481613,223.767611 224.161899,224.182982 223.868827,224.636115 C223.575756,225.089248 223.289345,225.63123 223.009595,226.268726 C222.727625,226.906221 222.527804,227.454867 222.412351,227.919106 C222.296899,228.381124 222.239173,228.809823 222.239173,229.196319 L222.239173,229.196319 Z" id="Fill-7"></path>
                    <path d="M240.267506,227.739186 C240.267506,227.62146 240.276387,227.452646 240.298589,227.234965 C240.316351,227.017283 240.347435,226.764062 240.387399,226.479743 C240.427363,226.193204 240.471768,225.893336 240.525054,225.573478 C240.573899,225.255841 240.624964,224.940425 240.67381,224.625009 C240.784821,223.889779 240.922476,223.094575 241.082333,222.239398 L240.855869,222.281602 C240.733756,222.43931 240.596101,222.665876 240.440685,222.965743 C240.283048,223.265611 240.065464,223.698752 239.783494,224.271832 C239.501524,224.847133 239.141845,225.589027 238.704458,226.501956 C238.267071,227.412664 237.700911,228.536611 237.005976,229.869354 C236.803935,230.262513 236.57081,230.546832 236.304381,230.72231 C236.037952,230.897788 235.74044,231.015513 235.420726,231.077708 C235.007762,231.155451 234.676946,231.142124 234.423839,231.037726 C234.172952,230.933327 233.979792,230.766735 233.842137,230.537947 C233.706702,230.306938 233.615673,230.033726 233.571268,229.71831 C233.524643,229.402894 233.50244,229.069708 233.50244,228.725416 C233.50244,228.35669 233.529083,227.916885 233.577929,227.406 C233.628994,226.892894 233.693381,226.353133 233.77553,225.780053 C233.855458,225.209195 233.973131,224.551708 234.128548,223.807593 C234.283964,223.065699 234.421619,222.417097 234.537071,221.86623 C234.652524,221.313142 234.770196,220.804478 234.89231,220.340239 C235.012202,219.878221 235.123214,219.496168 235.223125,219.198522 C235.325256,218.891991 235.420726,218.643212 235.509536,218.456628 C235.600565,218.267823 235.704917,218.116779 235.820369,217.999053 C235.935821,217.883549 236.075696,217.794699 236.235554,217.732504 C236.395411,217.672531 236.604113,217.617 236.855,217.568133 C237.236881,217.497053 237.536613,217.452628 237.751976,217.434858 C237.96956,217.414867 238.129417,217.439301 238.235988,217.503717 C238.340339,217.570354 238.404726,217.683637 238.424708,217.841345 C238.44469,217.999053 238.455792,218.216735 238.455792,218.496611 C238.455792,218.649876 238.446911,218.825354 238.433589,219.027487 C238.418048,219.227398 238.393625,219.442858 238.364762,219.673867 C238.34478,219.902655 238.313696,220.138106 238.273732,220.380221 C238.202685,220.842239 238.16272,221.084354 238.151619,221.104345 C238.011744,221.741841 237.867429,222.454858 237.716452,223.236735 L237.88075,223.367788 C237.900732,223.33669 238.033946,223.074584 238.282613,222.577027 C238.52906,222.08169 238.795488,221.586354 239.081899,221.091018 C239.36831,220.595681 239.676923,220.075912 240.009958,219.531708 C240.342994,218.987504 240.660488,218.503274 240.96022,218.079018 C241.253292,217.654761 241.561905,217.290478 241.8905,216.983947 C242.216875,216.681858 242.607637,216.486389 243.060565,216.399761 C243.484631,216.322018 243.84653,216.364221 244.146262,216.528593 C244.450435,216.690743 244.601411,216.975062 244.601411,217.379327 C244.601411,217.730283 244.574768,218.067912 244.523702,218.392212 C244.463756,218.807584 244.40381,219.125221 244.343863,219.345124 C244.272815,219.591681 244.192887,219.895991 244.101857,220.253611 C244.03081,220.564584 243.904256,221.015496 243.724417,221.608566 C243.695554,221.70408 243.66447,221.837354 243.633387,222.015053 C243.624506,222.070584 243.617845,222.108345 243.617845,222.126115 L243.784363,222.257168 C243.804345,222.226071 243.94644,221.963965 244.208429,221.468628 C244.470417,220.973292 244.752387,220.477956 245.061,219.980398 C245.367393,219.480619 245.695988,218.956407 246.042345,218.403319 C246.388702,217.852451 246.712857,217.363779 247.01703,216.937301 C247.307881,216.52415 247.598732,216.16431 247.891804,215.864442 C248.184875,215.560133 248.542333,215.369106 248.964179,215.289142 C249.437089,215.200292 249.836732,215.235832 250.163107,215.395761 C250.491702,215.553469 250.65378,215.835566 250.65378,216.239832 C250.65378,216.861779 250.620476,217.457071 250.549429,218.027929 C250.478381,218.598788 250.37181,219.236283 250.231935,219.935973 C250.09206,220.637885 249.985488,221.273159 249.91444,221.839575 C249.843393,222.40377 249.810089,222.999062 249.810089,223.618788 C249.810089,224.105239 249.878917,224.489513 250.021012,224.767168 C250.160887,225.047044 250.334065,225.166991 250.533887,225.12923 C250.74481,225.089248 250.966833,225.009283 251.197738,224.882673 C251.428643,224.758283 251.666208,224.611681 251.908214,224.438425 C252.148,224.267389 252.385565,224.078584 252.61869,223.867566 C252.849595,223.656549 253.069399,223.441088 253.282542,223.223407 C253.775435,222.716965 254.263887,222.157212 254.745679,221.541929 L255.003226,224.664991 C254.559179,225.051487 254.119571,225.446867 253.682185,225.855575 C253.244798,226.262062 252.780768,226.641894 252.292315,226.999513 C251.806083,227.354912 251.268786,227.672549 250.684863,227.950204 C250.10094,228.23008 249.44153,228.436655 248.706631,228.576593 C248.344732,228.64323 248.04056,228.598805 247.794113,228.441097 C247.545446,228.281168 247.347845,228.032389 247.196869,227.694761 C247.045893,227.354912 246.937101,226.943982 246.872714,226.457531 C246.806107,225.973301 246.775024,225.437982 246.775024,224.851575 C246.775024,224.285159 246.797226,223.680982 246.843851,223.036823 C246.886036,222.394885 246.950423,221.741841 247.032571,221.079912 L246.803887,221.122115 L243.739958,228.567708 C243.47797,228.989743 243.187119,229.294053 242.862964,229.482858 C242.54103,229.671664 242.17025,229.807159 241.746185,229.887124 C241.42425,229.947097 241.168923,229.920442 240.975762,229.804938 C240.784821,229.689434 240.636065,229.522841 240.531714,229.302938 C240.425143,229.085257 240.356315,228.838699 240.320792,228.558823 C240.283048,228.278947 240.267506,228.005735 240.267506,227.739186" id="Fill-8"></path>
                    <path d="M259.827804,223.916434 C260.840232,223.725407 261.763851,223.465522 262.598661,223.134558 C263.43347,222.805814 264.190571,222.430425 264.869964,222.008389 C265.549357,221.586354 266.162143,221.128779 266.712762,220.631221 C267.25894,220.135885 267.756274,219.622779 268.198101,219.089681 L268.364619,222.023938 C268.042685,222.454858 267.651923,222.888 267.194554,223.321142 C266.734964,223.754283 266.237631,224.151885 265.691452,224.516168 C265.147494,224.880451 264.576893,225.195867 263.979649,225.464637 C263.380185,225.735628 262.789601,225.924434 262.203458,226.035496 C262.134631,226.048823 262.045821,226.055487 261.94147,226.055487 C261.837119,226.055487 261.652839,226.055487 261.393071,226.057708 C261.131083,226.059929 260.758083,226.064372 260.271851,226.073257 C259.785619,226.084363 259.126208,226.111018 258.293619,226.151 L258.293619,226.393115 C258.293619,228.021283 258.135982,229.531726 257.818488,230.92 C257.503214,232.308274 257.081369,233.523292 256.552952,234.562832 C256.022315,235.60015 255.418411,236.439779 254.732357,237.079496 C254.048524,237.719212 253.338048,238.105708 252.600929,238.245646 C252.028107,238.354487 251.550756,238.318947 251.166655,238.139027 C250.784774,237.959106 250.480601,237.67923 250.254137,237.294956 C250.027673,236.910681 249.867815,236.442 249.772345,235.891133 C249.674655,235.338044 249.62581,234.744973 249.62581,234.107478 C249.62581,233.736531 249.694637,233.307832 249.823411,232.819159 C249.954405,232.328265 250.129804,231.806274 250.354048,231.255407 C250.573851,230.70454 250.822518,230.138124 251.100048,229.556159 C251.377577,228.976416 251.659548,228.41 251.952619,227.859133 C252.638673,226.575257 253.417976,225.238071 254.29275,223.845354 C254.405982,223.150106 254.519214,222.437088 254.636887,221.708522 C254.75456,220.977735 254.903315,220.255832 255.083155,219.540593 C255.265214,218.823133 255.542744,218.056805 255.920185,217.239389 C256.297625,216.419752 256.699488,215.744496 257.127994,215.213619 C257.5565,214.682743 258.069375,214.227389 258.668839,213.847558 C259.266083,213.469947 259.989881,213.201177 260.835792,213.041248 C261.448577,212.925743 262.021399,212.892425 262.554256,212.941292 C263.087113,212.987938 263.555583,213.141204 263.957446,213.396646 C264.35931,213.652088 264.676804,214.023035 264.907708,214.502823 C265.138613,214.984832 265.254065,215.606779 265.254065,216.368664 C265.254065,217.181637 265.154155,217.83246 264.954333,218.327796 C264.650161,219.067469 264.261619,219.731619 263.784268,220.322469 C263.309137,220.913319 262.740756,221.488619 262.081345,222.048372 C261.424155,222.605903 260.642631,223.145664 259.738994,223.660991 L259.827804,223.916434 L259.827804,223.916434 Z M252.512119,233.723204 C252.512119,233.794283 252.527661,233.907566 252.565405,234.060832 C252.598708,234.211876 252.656435,234.36292 252.738583,234.50508 C252.818512,234.64946 252.922863,234.77385 253.056077,234.871584 C253.184851,234.97154 253.346929,235.002637 253.537869,234.967097 C253.708827,234.936 253.848702,234.827159 253.959714,234.640575 C254.070726,234.456212 254.161756,234.220761 254.232804,233.932 C254.303851,233.643239 254.352696,233.323381 254.38378,232.974646 C254.414863,232.621469 254.437065,232.261628 254.454827,231.895124 C254.472589,231.528619 254.48147,231.173221 254.488131,230.824487 C254.492571,230.480195 254.505893,230.164779 254.528095,229.887124 C254.559179,229.400673 254.585821,228.991965 254.599143,228.656558 C254.616905,228.32115 254.628006,228.041274 254.641327,227.816929 C254.650208,227.56815 254.66131,227.350469 254.67019,227.163885 C254.47925,227.49485 254.29275,227.870239 254.11069,228.290053 C253.930851,228.712088 253.759893,229.147451 253.597815,229.59392 C253.435738,230.044832 253.291423,230.48908 253.160429,230.933327 C253.029435,231.375354 252.916202,231.786283 252.820732,232.166115 C252.725262,232.543726 252.649774,232.868027 252.594268,233.141239 C252.538762,233.414451 252.512119,233.60992 252.512119,233.723204 L252.512119,233.723204 Z M257.913958,222.967965 C258.517863,222.594796 259.041839,222.208301 259.485887,221.804035 C259.907732,221.404212 260.280732,220.995504 260.602667,220.571248 C260.733661,220.529044 261.046714,220.07369 261.539607,219.205186 C261.870423,218.476619 262.083565,217.930195 262.174595,217.557027 C262.22344,217.357115 262.256744,217.130549 262.272286,216.872885 C262.287827,216.615221 262.256744,216.381991 262.181256,216.170973 C262.107988,215.959956 261.976994,215.793363 261.790494,215.668973 C261.603994,215.544584 261.348667,215.513487 261.015631,215.575681 C260.644851,215.64454 260.316256,215.795584 260.034286,216.026593 C259.752315,216.255381 259.508089,216.539699 259.301607,216.88177 C259.095125,217.223841 258.924167,217.612558 258.788732,218.052363 C258.651077,218.492168 258.49122,219.03415 258.30472,219.676088 C258.11822,220.322469 258.007208,220.902212 257.969464,221.424204 C257.93394,221.943973 257.913958,222.459301 257.913958,222.967965 L257.913958,222.967965 Z" id="Fill-9"></path>
                    <path d="M279.068387,219.864894 C278.102583,220.546814 277.238911,221.144327 276.48403,221.661876 C275.726929,222.179425 275.054196,222.617009 274.465833,222.979071 C273.87525,223.338912 273.351274,223.625451 272.893905,223.836469 C272.434315,224.047487 272.016911,224.187425 271.646131,224.258504 C270.884589,224.400664 270.214077,224.32292 269.632375,224.023053 C269.052893,223.720965 268.566661,223.223407 268.175899,222.523717 C267.787357,221.826248 267.494286,220.948858 267.296685,219.887106 C267.103524,218.827575 267.005833,217.612558 267.005833,216.239832 C267.005833,215.704513 267.030256,215.129212 267.081321,214.513929 C267.130167,213.898646 267.201214,213.283363 267.290024,212.66808 C266.985851,212.688071 266.750506,212.694735 266.581768,212.690292 C266.41747,212.688071 266.237631,212.68585 266.051131,212.68585 C265.864631,212.68585 265.624845,212.694735 265.336214,212.708062 C265.047583,212.723611 264.630179,212.752487 264.084,212.796912 C263.839774,212.81246 263.651054,212.792469 263.52006,212.732496 C263.389065,212.670301 263.293595,212.590336 263.231429,212.488159 C263.171482,212.385982 263.135958,212.272699 263.124857,212.150531 C263.113756,212.028363 263.109315,211.923965 263.109315,211.835115 C263.109315,211.692956 263.209226,211.566345 263.404607,211.455283 C263.604429,211.344221 263.855315,211.242044 264.166149,211.146531 C264.474762,211.051018 264.812238,210.966611 265.183018,210.89331 C265.551577,210.820009 265.904595,210.755593 266.244292,210.700062 C266.581768,210.644531 266.88594,210.593442 267.154589,210.549018 C267.423238,210.502372 267.607518,210.462389 267.709649,210.424628 C267.980518,209.174071 268.324655,207.945726 268.74206,206.744035 C269.157244,205.540124 269.625714,204.451717 270.14303,203.478814 C270.660345,202.505912 271.224286,201.697381 271.839292,201.053221 C272.452077,200.409062 273.093726,200.022566 273.768679,199.895956 C274.201625,199.815991 274.596827,199.847088 274.954286,199.99369 C275.311744,200.140292 275.615917,200.36908 275.866804,200.677832 C276.119911,200.984363 276.313071,201.364195 276.448506,201.817327 C276.586161,202.268239 276.652768,202.750248 276.652768,203.267796 C276.652768,203.696496 276.58394,204.158513 276.441845,204.660513 C276.30197,205.162513 276.10881,205.684504 275.866804,206.222044 C275.624798,206.759584 275.342827,207.312673 275.014232,207.879088 C274.687857,208.447726 274.3415,209.014142 273.979601,209.578336 C274.070631,209.53169 274.221607,209.498372 274.43475,209.476159 C274.645673,209.453947 274.889899,209.420628 275.165208,209.376204 C275.442738,209.329558 275.74247,209.282912 276.064405,209.227381 C276.386339,209.174071 276.699393,209.122982 276.999125,209.076336 C277.303298,209.027469 277.585268,208.983044 277.847256,208.943062 C278.109244,208.90308 278.324607,208.871982 278.495565,208.84977 C278.697607,208.820894 278.844143,208.891973 278.932952,209.063009 C279.023982,209.234044 279.068387,209.465053 279.068387,209.751593 C279.068387,210.084779 278.968476,210.375761 278.766435,210.622319 C278.564393,210.871097 278.344589,211.017699 278.102583,211.062124 L272.298881,212.154973 C272.003589,212.565903 271.708298,212.972389 271.410786,213.369991 C271.113274,213.769814 270.835744,214.131876 270.584857,214.456177 C270.542673,215.015929 270.507149,215.566796 270.478286,216.106558 C270.469405,216.342009 270.458304,216.581903 270.449423,216.82846 C270.438321,217.075018 270.42722,217.319354 270.418339,217.561469 C270.407238,217.803584 270.400577,218.039035 270.396137,218.263381 C270.389476,218.485504 270.387256,218.69208 270.387256,218.878664 C270.387256,219.360673 270.438321,219.756053 270.538232,220.067027 C270.640363,220.378 270.786899,220.620115 270.977839,220.793372 C271.171,220.966628 271.406345,221.073248 271.683875,221.115451 C271.961405,221.155434 272.272238,221.144327 272.616375,221.079912 C272.827298,221.039929 273.091506,220.946637 273.409,220.797814 C273.726494,220.648991 274.075071,220.460186 274.452512,220.233619 C274.829952,220.007053 275.227375,219.744947 275.64478,219.453965 C276.064405,219.160761 276.477369,218.847566 276.883673,218.518823 C277.294417,218.185637 277.682958,217.845788 278.055958,217.494832 C278.428958,217.143876 278.766435,216.79292 279.068387,216.441965 L279.068387,219.864894 L279.068387,219.864894 Z M274.237149,203.840876 C274.237149,203.745363 274.230488,203.636522 274.214946,203.518796 C274.199405,203.403292 274.168321,203.296673 274.117256,203.198938 C274.06619,203.103425 273.988482,203.027903 273.881911,202.976814 C273.775339,202.925726 273.626583,202.919062 273.435643,202.954602 C273.171435,203.003469 272.907226,203.25669 272.638577,203.714265 C272.372149,204.171841 272.112381,204.742699 271.865935,205.420177 C271.617268,206.099876 271.384143,206.839549 271.16878,207.643637 C270.951196,208.445504 270.751375,209.220717 270.569315,209.971496 C270.720292,209.955947 270.873488,209.940398 271.024464,209.920407 C271.17544,209.902637 271.330857,209.884867 271.495155,209.867097 C271.797107,209.360655 272.112381,208.816451 272.440976,208.230044 C272.769571,207.643637 273.064863,207.072779 273.329071,206.517469 C273.59106,205.962159 273.808643,205.446832 273.979601,204.973708 C274.15278,204.500584 274.237149,204.122973 274.237149,203.840876 L274.237149,203.840876 Z" id="Fill-10"></path>
                    <path d="M287.176696,211.024363 C287.469768,211.486381 287.687351,211.992823 287.833887,212.539248 C287.980423,213.085673 288.05147,213.720947 288.05147,214.44285 C288.05147,214.969283 287.987083,215.511265 287.856089,216.071018 C287.725095,216.63077 287.536375,217.183858 287.289929,217.730283 C287.043482,218.274487 286.74153,218.798699 286.384071,219.30292 C286.026613,219.807142 285.62031,220.262496 285.16294,220.668982 C284.703351,221.07769 284.203798,221.426425 283.659839,221.715186 C283.115881,222.006168 282.536399,222.208301 281.923613,222.323805 C281.037738,222.490398 280.278417,222.461522 279.650089,222.234956 C279.021762,222.012832 278.504446,221.659655 278.102583,221.182088 C277.70072,220.706743 277.405429,220.138106 277.218929,219.478398 C277.034649,218.81869 276.941399,218.132327 276.941399,217.417088 C276.941399,216.242053 277.105696,215.19585 277.438732,214.28292 C277.769548,213.36777 278.246899,212.539248 278.864125,211.792912 C279.483571,211.048796 280.242893,210.411301 281.137649,209.882646 C282.034625,209.35177 283.040393,208.983044 284.157173,208.772027 C285.114095,208.592106 286.008851,208.554345 286.845881,208.660965 C287.68069,208.765363 288.464435,208.969717 289.192673,209.276248 C289.920911,209.578336 290.602524,210.007035 291.230851,210.555681 C291.859179,211.106549 292.447542,211.632982 292.9915,212.137204 L292.702869,214.076345 C292.432,213.807575 292.06344,213.527699 291.601631,213.241159 C291.137601,212.952398 290.646929,212.63254 290.129613,212.27492 C289.610077,211.917301 289.099423,211.62854 288.595429,211.406416 C288.093655,211.184292 287.660708,210.999929 287.296589,210.855549 L287.176696,211.024363 L287.176696,211.024363 Z M282.511976,219.644991 C282.853893,219.580575 283.186929,219.362894 283.508863,218.996389 C283.830798,218.627664 284.112768,218.187858 284.354774,217.672531 C284.59678,217.159425 284.78994,216.557469 284.934256,215.866664 C285.080792,215.173637 285.15406,214.56946 285.15406,214.051912 C285.15406,213.643204 285.118536,213.270035 285.047488,212.930186 C284.978661,212.590336 284.872089,212.306018 284.732214,212.072788 C284.590119,211.841779 284.40806,211.670743 284.188256,211.561903 C283.966232,211.450841 283.699804,211.426407 283.38675,211.484159 C282.973786,211.561903 282.580804,211.792912 282.210024,212.172743 C281.837024,212.557018 281.510649,213.016814 281.228679,213.554354 C280.946708,214.094115 280.724685,214.673858 280.562607,215.291363 C280.40275,215.911088 280.322821,216.588566 280.322821,217.328239 C280.322821,217.703628 280.362786,218.04792 280.442714,218.363336 C280.524863,218.676531 280.649196,218.94308 280.820155,219.154097 C280.991113,219.367336 281.217577,219.520602 281.499548,219.616115 C281.781518,219.709407 282.118994,219.720513 282.511976,219.644991 L282.511976,219.644991 Z" id="Fill-11"></path>
                    <path d="M290.922238,217.834681 C290.922238,217.246053 290.962202,216.55969 291.042131,215.773372 C291.12206,214.987053 291.22419,214.12077 291.344083,213.176743 C291.466196,212.230496 291.601631,211.373097 291.752607,210.604549 C291.901363,209.836 292.047899,209.176292 292.189994,208.623204 C292.301006,208.192283 292.514149,207.81023 292.831643,207.472602 C293.149137,207.137195 293.577643,206.917292 294.121601,206.815115 C294.66556,206.712938 295.043,206.78846 295.253923,207.043903 C295.464845,207.299345 295.571417,207.670292 295.571417,208.161186 C295.571417,208.29446 295.555875,208.476602 295.527012,208.712053 C295.495929,208.945283 295.458185,209.200726 295.41378,209.480602 C295.367155,209.760478 295.32053,210.05146 295.269464,210.351327 C295.218399,210.648973 295.171774,210.988823 295.125149,211.366434 C295.080744,211.746265 295.043,212.028363 295.014137,212.217168 C294.983054,212.405973 294.967512,212.532584 294.967512,212.592558 L295.269464,212.537027 C295.329411,212.425965 295.424881,212.250487 295.555875,212.008372 C295.686869,211.764035 295.837845,211.421965 296.008804,210.979938 C296.181982,210.537912 296.364042,210.14031 296.559423,209.787133 C296.757024,209.433956 296.941304,209.096327 297.112262,208.774248 C297.28322,208.452168 297.438637,208.165628 297.580732,207.91685 C297.720607,207.668071 297.827179,207.483708 297.896006,207.36154 C298.220161,206.819558 298.5865,206.421956 298.999464,206.164292 C299.410208,205.90885 299.869798,205.733372 300.373792,205.64008 C300.877786,205.544566 301.275208,205.655628 301.57494,205.975487 C301.870232,206.293124 302.018988,206.781796 302.018988,207.441504 C302.018988,207.539239 301.996786,207.708053 301.950161,207.950168 C301.905756,208.190062 301.84803,208.476602 301.776982,208.812009 C301.705935,209.145195 301.628226,209.576115 301.543857,210.100327 C301.457268,210.62454 301.37956,211.093221 301.308512,211.506372 C301.239685,211.921743 301.181958,212.32823 301.135333,212.728053 C301.090929,213.130097 301.066506,213.496602 301.066506,213.825345 C301.066506,214.378434 301.144214,214.818239 301.301851,215.144761 C301.457268,215.473504 301.701494,215.604558 302.03453,215.542363 C302.154423,215.52015 302.325381,215.44685 302.547405,215.324681 C302.88044,215.155867 303.089143,215.022593 303.182393,214.924858 C303.62422,214.538363 303.855125,214.349558 303.875107,214.351779 C303.90619,214.356221 304.241446,214.116327 304.887536,213.627655 C305.693482,213.021257 306.652625,212.283805 307.771625,211.415301 L307.756083,214.411752 L307.001202,215.060354 C306.941256,215.118106 306.468345,215.437965 305.58247,216.024372 C304.303613,216.870664 303.502107,217.388212 303.182393,217.572575 C302.396429,218.032372 301.907976,218.303363 301.717036,218.383327 C301.213042,218.621 300.684625,218.792035 300.131786,218.896434 C299.576726,219.000832 299.112696,218.732062 298.735256,218.094566 C298.357815,217.457071 298.169095,216.457513 298.169095,215.093673 C298.169095,214.558354 298.20906,213.974168 298.288988,213.338894 C298.368917,212.703619 298.471048,212.019478 298.59094,211.284248 L298.351155,211.328673 L294.39469,219.027487 C294.181548,219.440637 293.955083,219.733841 293.715298,219.902655 C293.46219,220.082575 293.171339,220.204743 292.838304,220.269159 C292.425339,220.346903 292.094524,220.331354 291.843637,220.220292 C291.59053,220.113673 291.397369,219.940416 291.261935,219.702743 C291.1265,219.465071 291.03547,219.185195 290.988845,218.858673 C290.94444,218.53215 290.922238,218.19008 290.922238,217.834681" id="Fill-12"></path>
                    <path d="M12.4932798,173.11892 C10.2863631,177.612487 8.31923214,181.048743 6.58966667,183.429912 C4.85788095,185.81108 3.45025,187.114947 2.36455357,187.345956 C0.872553571,187.663593 0.124333333,186.108726 0.124333333,182.681354 C0.124333333,179.353938 0.601684524,176.264195 1.54972619,173.416566 C2.4999881,170.566717 3.83213095,167.932327 5.54615476,165.513398 C7.26017857,163.09669 9.29391667,160.915434 11.6540298,158.969628 C14.0097024,157.026044 16.589619,155.291257 19.3893393,153.760823 C22.1868393,152.232611 25.1464167,150.915416 28.2702917,149.81146 C31.3897262,148.707504 34.5979702,147.80346 37.8883631,147.10377 C41.7227143,146.288575 45.5726071,145.751035 49.4424821,145.486708 C53.3079167,145.220159 57.0245952,145.220159 60.5880774,145.477823 C64.1493393,145.735487 67.4730357,146.257478 70.5613869,147.037133 C73.6497381,147.82123 76.3384464,148.840779 78.6297321,150.098 C80.9187976,151.355221 82.7171905,152.861221 84.0226905,154.613779 C85.3281905,156.368558 85.9831607,158.34546 85.9831607,160.546708 C85.9831607,163.16777 85.4147798,165.87546 84.2780179,168.667558 C83.141256,171.461876 81.3584048,174.147354 78.9339048,176.72177 C76.5071845,179.296186 73.4032917,181.650699 69.620006,183.783088 C65.8367202,185.913257 61.3007738,187.594735 56.005506,188.82308 C59.3647262,188.107841 62.299881,188.030097 64.8109702,188.587628 C67.3220595,189.147381 69.424625,190.175814 71.1231071,191.668487 C72.819369,193.165602 74.0915655,195.11585 74.9374762,197.51923 C75.7878274,199.920389 76.2118929,202.459265 76.2118929,205.131416 C76.2118929,207.234929 75.9232619,209.433956 75.346,211.726274 C74.7687381,214.020814 73.9028452,216.293142 72.7505417,218.541035 C71.5960179,220.79115 70.1550833,222.97685 68.4255179,225.095912 C66.6937321,227.217195 64.6666548,229.178549 62.3420655,230.975531 C60.0174762,232.770292 57.3975952,234.356257 54.4779821,235.726761 C51.5605893,237.099487 48.3545655,238.156796 44.8599107,238.900912 C42.6552143,239.369593 40.330625,239.729434 37.8883631,239.984876 C35.4461012,240.235876 32.9771964,240.400248 30.483869,240.477991 C27.9905417,240.553513 25.5393988,240.533522 23.1304405,240.420239 C20.7192619,240.304735 18.4479583,240.115929 16.309869,239.849381 C15.3596071,239.831611 14.5203571,239.682788 13.7898988,239.398469 C13.0616607,239.11415 12.6953214,238.407796 12.6953214,237.279407 C12.6953214,231.575265 12.8396369,225.704531 13.1282679,219.662761 C13.4168988,213.623212 14.0030417,207.579221 14.8844762,201.533009 C15.7659107,195.486796 16.9537381,190.140274 18.4479583,185.491221 C19.9399583,180.846611 22.0602857,176.18423 24.8089405,171.510743 C27.2178988,169.327265 29.4048333,168.027841 31.3741845,167.608027 C33.84975,167.081593 35.9190119,168.038947 37.5819702,170.480088 C36.0233631,172.945664 34.6912202,175.604487 33.5877619,178.452115 C32.4843036,181.304186 31.6450536,183.805301 31.0677917,185.95546 C30.4905298,188.110062 29.9754345,190.731124 29.5158452,193.820867 C29.0584762,196.912832 28.6943571,199.915947 28.4234881,202.830212 C28.2525298,204.482814 28.1082143,206.310894 27.9905417,208.316673 C27.8706488,210.32023 27.7596369,212.279363 27.6597262,214.19185 C27.5575952,216.106558 27.4798869,218.007938 27.4310417,219.89377 C27.3799762,221.777381 27.3533333,223.581027 27.3533333,225.302487 L27.3533333,226.448646 C27.3533333,226.932876 27.3955179,227.425991 27.4798869,227.930212 C27.564256,228.432212 27.6752679,228.885345 27.8129226,229.289611 C27.9461369,229.696097 28.1503988,229.971531 28.4234881,230.122575 C30.4905298,230.375796 32.7129881,230.493522 35.0886429,230.473531 C37.4642976,230.455761 39.8399524,230.193655 42.2133869,229.687212 C45.0974762,229.07415 47.8971964,228.12346 50.6125476,226.835142 C53.3256786,225.546823 55.7346369,223.907549 57.8394226,221.915097 C59.9419881,219.924867 61.629369,217.588124 62.9037857,214.907088 C64.1737619,212.226053 64.8109702,209.01192 64.8109702,205.26469 C64.8109702,203.254469 64.4379702,201.659619 63.6919702,200.482363 C62.9459702,199.307327 61.9690655,198.394398 60.7634762,197.748018 C59.5601071,197.101637 58.1857798,196.675159 56.6427143,196.466363 C55.0974286,196.257566 53.5210595,196.106522 51.9091667,196.015451 C50.2972738,195.924381 48.7186845,195.837752 47.175619,195.751124 C45.6303333,195.666717 44.2582262,195.433487 43.0526369,195.051434 C41.8492679,194.671602 40.8723631,194.087416 40.1285833,193.296655 C39.3803631,192.508115 39.0073631,191.355292 39.0073631,189.838186 C39.0073631,189.127389 39.0495476,188.498779 39.1361369,187.954575 C39.2182857,187.410372 39.4225476,186.935027 39.7467024,186.526319 C40.0686369,186.119832 40.5415476,185.762212 41.1720952,185.457903 C41.7982024,185.155814 42.6552143,184.889265 43.7409107,184.658257 C45.1996071,184.347283 46.53175,184.125159 47.735119,183.987442 C48.9407083,183.849726 50.2373274,183.632044 51.6294167,183.336619 C54.886506,182.643593 57.8305417,181.617381 60.4615238,180.257982 C63.0902857,178.898584 65.3260655,177.341496 67.177744,175.584496 C69.0272024,173.829717 70.4525952,171.932779 71.4517024,169.895903 C72.4530298,167.861248 72.9525833,165.804381 72.9525833,163.725301 C72.9525833,162.363681 72.5640417,161.193088 71.7825179,160.217965 C71.0032143,159.242841 69.9086369,158.454301 68.501006,157.850124 C67.0911548,157.245947 65.4392976,156.80392 63.5387738,156.528487 C61.63825,156.250832 59.5689881,156.119779 57.3309881,156.137549 C55.0907679,156.153097 52.7306548,156.313027 50.2550893,156.619558 C47.7773036,156.923867 45.2684345,157.348124 42.7240417,157.887885 C38.6166012,158.763053 35.4283393,159.576027 33.1548155,160.331248 C30.0331607,161.337469 27.1246488,162.492513 24.4270595,163.800823 C21.7294702,165.106912 19.3382738,166.561823 17.25125,168.165558 C15.1642262,169.769292 13.5789762,171.419673 12.4932798,173.11892" id="Fill-13"></path>
                    <path d="M139.160083,201.339761 C138.38078,202.605867 137.337268,204.114088 136.031768,205.868867 C134.726268,207.623646 133.25647,209.342885 131.629036,211.026584 C130.001601,212.712504 128.252054,214.216283 126.387054,215.540142 C124.522054,216.864 122.654833,217.723619 120.789833,218.121221 C118.536292,218.601009 116.65575,218.285593 115.150429,217.179416 C113.645107,216.071018 112.346268,214.271814 111.25169,211.784027 C110.430202,212.896867 109.422214,214.069681 108.225506,215.298027 C107.026577,216.528593 105.718857,217.68808 104.300125,218.778708 C102.881393,219.869336 101.402714,220.831133 99.861869,221.661876 C98.323244,222.494841 96.784619,223.074584 95.245994,223.401106 C93.6163393,223.747619 92.0310893,223.749841 90.4880238,223.409991 C88.9405179,223.072363 87.5772917,222.401549 86.3894643,221.404212 C85.2016369,220.406876 84.251375,219.085239 83.5386786,217.439301 C82.8259821,215.793363 82.470744,213.840894 82.470744,211.579673 C82.470744,209.043018 82.8282024,206.361982 83.5453393,203.538788 C84.2624762,200.713372 85.3725952,197.585867 86.8734762,194.154053 C88.3743571,190.72446 89.9884702,187.692469 91.711375,185.05808 C93.4342798,182.425912 95.3192619,180.044743 97.3685417,177.919018 C99.4178214,175.791071 101.575893,173.989646 103.844976,172.50808 C106.11628,171.026513 108.427548,170.035841 110.78322,169.536062 C111.566964,169.369469 112.18197,169.391681 112.626018,169.607142 C113.070065,169.820381 113.436405,170.093593 113.727256,170.426779 C114.015887,170.759965 114.297857,171.086487 114.573167,171.406345 C114.844036,171.723982 115.185952,171.926115 115.596696,172.010522 C116.00522,172.094929 116.422625,172.119363 116.851131,172.077159 C117.275196,172.039398 117.712583,171.972761 118.154411,171.877248 C118.531851,171.797283 118.913732,171.708434 119.306714,171.608478 C119.699696,171.506301 120.083798,171.417451 120.459018,171.337487 C120.969673,171.228646 121.449244,171.177558 121.893292,171.186442 C122.337339,171.195327 122.730321,171.333044 123.070018,171.604035 C123.409714,171.875027 123.671702,172.299283 123.858202,172.876805 C124.044702,173.456549 124.140173,174.276186 124.140173,175.340159 C124.140173,176.961664 123.969214,178.798628 123.631738,180.846611 C123.289821,182.899035 122.90128,185.006991 122.466113,187.17492 C122.026506,189.34285 121.526952,191.815088 120.967452,194.591637 C120.407952,197.365965 120.128202,199.664947 120.128202,201.484142 C120.128202,203.04123 120.270298,204.22515 120.558929,205.042566 C120.84756,205.857761 121.467006,206.164292 122.417268,205.962159 C123.129964,205.811115 123.875964,205.475708 124.657488,204.955938 C125.436792,204.436168 126.224976,203.805336 127.024262,203.065664 C127.821327,202.32377 128.618393,201.504133 129.415458,200.613416 C130.212524,199.720478 130.967405,198.80977 131.680101,197.883513 C133.34306,195.713363 135.02156,193.303319 136.717821,190.655602 L139.160083,201.339761 L139.160083,201.339761 Z M95.4991012,206.637416 C95.4991012,207.512584 95.5590476,208.349991 95.6767202,209.147416 C95.7966131,209.944841 96.009756,210.635646 96.3139286,211.217611 C96.6203214,211.799575 97.0288452,212.237159 97.5372798,212.532584 C98.0479345,212.828009 98.6940238,212.890204 99.4755476,212.723611 C100.734423,212.457062 101.873405,211.668522 102.890274,210.357991 C103.909363,209.04746 104.795238,207.543681 105.543458,205.846655 C106.289458,204.149628 106.893363,202.432611 107.352952,200.693381 C107.812542,198.956372 108.107833,197.525894 108.245488,196.404168 L112.039875,179.042965 C110.647786,179.340611 109.29122,179.973664 107.967958,180.946566 C106.644696,181.917248 105.399143,183.114496 104.229077,184.542752 C103.059012,185.968788 101.979976,187.543646 100.996411,189.267327 C100.010625,190.991009 99.0448214,193.063425 98.0945595,195.486796 C97.1442976,197.910168 96.4737857,200.004796 96.085244,201.76846 C95.6944821,203.534345 95.4991012,205.158071 95.4991012,206.637416 L95.4991012,206.637416 Z" id="Fill-14"></path>
                    <path d="M135.094827,204.182947 C135.094827,202.688053 135.181417,200.931053 135.350155,198.909726 C135.518893,196.888398 135.747577,194.742681 136.036208,192.474796 C136.324839,190.206912 136.664536,187.885717 137.055298,185.513434 C137.443839,183.138929 137.945613,180.586726 138.556179,177.859044 C139.166744,175.133584 139.69294,172.859035 140.134768,171.033177 C140.574375,169.207319 141.016202,167.687991 141.45803,166.475195 C141.728899,165.671106 141.999768,165.018062 142.270637,164.520504 C142.543726,164.020726 142.85678,163.607575 143.214238,163.276611 C143.569476,162.945646 144.009083,162.681319 144.5375,162.48585 C145.061476,162.288159 145.714226,162.108239 146.49575,161.941646 C147.377185,161.755062 148.065458,161.650664 148.556131,161.630673 C149.049024,161.610681 149.413143,161.737292 149.650708,162.008283 C149.888274,162.281496 150.032589,162.716858 150.083655,163.316593 C150.13472,163.916327 150.159143,164.742628 150.159143,165.795496 C150.159143,167.052717 150.074774,168.85192 149.906036,171.195327 C149.737298,173.540956 149.684012,175.571168 149.752839,177.288186 L150.312339,177.168239 C150.991732,175.666681 151.839863,173.705327 152.856732,171.279735 C153.875821,168.858584 154.943756,166.797274 156.062756,165.100248 C157.183976,163.403221 158.456173,161.901664 159.881565,160.595575 C161.306958,159.291708 162.949935,158.443195 164.817155,158.045593 C165.461024,157.907876 166.091571,157.885664 166.699917,157.976735 C167.312702,158.065584 167.84556,158.265496 168.302929,158.576469 C168.762518,158.887442 169.126637,159.311699 169.397506,159.847018 C169.668375,160.382336 169.80381,161.024274 169.80381,161.770611 C169.80381,162.348133 169.71944,163.172212 169.550702,164.24285 C169.379744,165.315708 169.108875,166.721752 168.735875,168.463204 C168.362875,170.206876 168.092006,171.63069 167.921048,172.736867 C167.750089,173.843044 167.66794,174.74931 167.66794,175.464549 C167.66794,176.68623 167.787833,177.676903 168.025399,178.44323 C168.260744,179.207336 168.576018,179.793743 168.96456,180.202451 C169.355321,180.613381 169.797149,180.866602 170.287821,180.964336 C170.780714,181.064292 171.29803,181.057628 171.839768,180.942124 C173.367292,180.615602 174.945881,179.940345 176.573315,178.916354 C178.20297,177.890142 179.69497,176.810619 181.053756,175.671124 C182.647887,174.349487 184.208714,172.896796 185.734018,171.315274 L184.972476,183.39215 C184.088821,184.158478 183.089714,185.013655 181.968494,185.966566 C180.849494,186.917257 179.652786,187.843513 178.380589,188.740894 C177.108393,189.640496 175.785131,190.444584 174.410804,191.164265 C173.036476,191.879504 171.637726,192.388168 170.212333,192.692478 C167.66794,193.232239 165.61422,193.152274 164.053393,192.448142 C162.492565,191.74623 161.253673,190.651159 160.338935,189.16515 C159.424196,187.681363 158.742583,185.939912 158.302976,183.94746 C157.861149,181.952788 157.505911,179.915912 157.232821,177.834611 L156.420214,178.007867 L147.310577,205.35354 C146.833226,206.779575 146.384738,207.967938 145.960673,208.923071 C145.536607,209.880425 145.103661,210.67785 144.664054,211.313124 C144.222226,211.950619 143.747095,212.432628 143.238661,212.761372 C142.728006,213.090115 142.170726,213.318903 141.55794,213.449956 C140.165851,213.745381 139.046851,213.687628 138.20094,213.272257 C137.35281,212.859106 136.697839,212.201619 136.24047,211.297575 C135.783101,210.393531 135.476708,209.318451 135.325732,208.081221 C135.172536,206.839549 135.094827,205.540124 135.094827,204.182947" id="Fill-15"></path>
                    <path d="M194.817012,202.123858 C191.675375,202.792451 188.915619,202.803558 186.544405,202.152735 C184.16875,201.504133 182.179417,200.382407 180.574185,198.787558 C178.971173,197.194929 177.756702,195.213584 176.939655,192.83908 C176.118167,190.469018 175.709643,187.907929 175.709643,185.158035 C175.709643,183.190018 176.049339,180.757761 176.730952,177.863487 C177.412565,174.969212 178.156345,172.410345 178.957851,170.186885 C179.759357,167.961204 180.747363,165.791053 181.924089,163.674212 C183.100815,161.557372 184.466262,159.629336 186.018208,157.890106 C187.570155,156.153097 189.29972,154.662646 191.211345,153.425416 C193.12075,152.188186 195.216655,151.326345 197.5035,150.839894 C199.55944,150.40231 201.466625,150.293469 203.216173,150.515593 C204.96794,150.737717 206.466601,151.241938 207.709935,152.030478 C208.955488,152.816796 209.930173,153.856336 210.633988,155.149097 C211.340024,156.44408 211.690821,157.921204 211.690821,159.584912 C211.690821,160.737735 211.524304,161.910549 211.195708,163.101133 C210.864893,164.291717 210.221024,165.744407 209.266321,167.456982 C208.313839,169.171779 207.38578,170.395681 206.486583,171.12869 C205.585167,171.86392 204.568298,172.350372 203.431536,172.592487 C201.713071,172.958991 200.605173,172.770186 200.105619,172.026071 C199.284131,170.879912 199.024363,169.762628 199.326315,168.680885 C199.428446,168.114469 199.732619,166.795053 200.238833,164.718195 C200.307661,164.431655 200.323202,163.818593 200.289899,162.874566 C200.289899,162.059372 200.20553,161.399664 200.036792,160.893221 C199.868054,160.384558 199.497274,160.19131 198.922232,160.313478 C197.536804,160.608903 196.355637,161.190867 195.376512,162.059372 C194.395167,162.932319 193.558137,163.97408 192.867643,165.191319 C192.174929,166.408558 191.491095,168.063381 190.813923,170.16023 C190.13897,172.254858 189.659399,173.99631 189.370768,175.380142 C189.084357,176.763973 188.906738,178.065619 188.840131,179.28508 C188.771304,180.506761 188.738,181.521867 188.738,182.337062 C188.738,183.560965 188.846792,184.809301 189.066595,186.086513 C189.286399,187.363726 189.726006,188.485451 190.383196,189.447248 C191.042607,190.409044 191.895179,191.146496 192.943131,191.652938 C193.988863,192.159381 195.340988,192.237124 196.995065,191.886168 C198.62472,191.539655 200.423113,190.655602 202.392464,189.234009 C204.359595,187.816858 206.335607,186.130938 208.3205,184.18069 C210.305393,182.230442 212.194815,180.149142 213.995429,177.934566 C215.793821,175.71777 217.336887,173.658681 218.626845,171.75508 L222.137042,176.915018 C219.594869,181.088726 216.846214,184.913699 213.893298,188.392159 C212.638863,189.882611 211.273417,191.361956 209.796958,192.827973 C208.3205,194.296212 206.777435,195.653389 205.165542,196.895062 C203.553649,198.136735 201.872929,199.22292 200.125601,200.155841 C198.378274,201.08654 196.608744,201.741805 194.817012,202.123858" id="Fill-16"></path>
                    <path d="M270.773577,173.354372 C269.992054,174.618257 268.948542,176.128699 267.643042,177.881257 C266.337542,179.636035 264.869964,181.355274 263.24031,183.038973 C261.612875,184.724894 259.863327,186.228673 257.998327,187.552531 C256.133327,188.876389 254.266107,189.736009 252.401107,190.133611 C250.147565,190.613398 248.267024,190.297982 246.761702,189.191805 C245.256381,188.083407 243.957542,186.284204 242.862964,183.796416 C242.041476,184.909257 241.033488,186.082071 239.83678,187.310416 C238.637851,188.540982 237.330131,189.700469 235.911399,190.793319 C234.492667,191.881726 233.013988,192.843522 231.473143,193.674265 C229.934518,194.50723 228.395893,195.086973 226.857268,195.413496 C225.227613,195.760009 223.642363,195.76223 222.099298,195.422381 C220.554012,195.084752 219.188565,194.416159 218.000738,193.416602 C216.812911,192.421487 215.862649,191.097628 215.149952,189.45169 C214.439476,187.805752 214.084238,185.853283 214.084238,183.592062 C214.084238,181.057628 214.439476,178.374372 215.156613,175.551177 C215.87375,172.725761 216.983869,169.598257 218.48697,166.166442 C219.987851,162.73685 221.599744,159.704858 223.322649,157.070469 C225.045554,154.438301 226.930536,152.057133 228.979815,149.931407 C231.029095,147.80346 233.187167,146.002035 235.45625,144.520469 C237.727554,143.038903 240.038821,142.050451 242.394494,141.548451 C243.178238,141.381858 243.793244,141.404071 244.237292,141.619531 C244.681339,141.834991 245.047679,142.105982 245.33853,142.439168 C245.627161,142.772354 245.909131,143.098876 246.18444,143.418735 C246.45531,143.738593 246.797226,143.938504 247.20797,144.022912 C247.616494,144.10954 248.033899,144.131752 248.462405,144.089549 C248.88647,144.051788 249.323857,143.98515 249.767905,143.889637 C250.143125,143.809673 250.525006,143.720823 250.917988,143.620867 C251.31097,143.51869 251.695071,143.429841 252.070292,143.349876 C252.583167,143.241035 253.060518,143.189947 253.504565,143.198832 C253.948613,143.207717 254.341595,143.345434 254.681292,143.616425 C255.020988,143.887416 255.285196,144.311673 255.469476,144.889195 C255.655976,145.468938 255.751446,146.288575 255.751446,147.352549 C255.751446,148.974053 255.580488,150.811018 255.243012,152.861221 C254.903315,154.909204 254.512554,157.019381 254.077387,159.18731 C253.63778,161.355239 253.138226,163.827478 252.578726,166.604027 C252.019226,169.380575 251.739476,171.677336 251.739476,173.496531 C251.739476,175.053619 251.881571,176.239761 252.170202,177.054956 C252.458833,177.87015 253.07828,178.176681 254.028542,177.974549 C254.741238,177.823504 255.487238,177.488097 256.268762,176.968327 C257.048065,176.448558 257.83625,175.817726 258.635536,175.078053 C259.432601,174.336159 260.229667,173.518743 261.026732,172.625805 C261.823798,171.732867 262.580899,170.822159 263.291375,169.895903 C264.954333,167.725752 266.632833,165.317929 268.329095,162.667991 L270.773577,173.354372 L270.773577,173.354372 Z M227.112595,178.649805 C227.112595,179.524973 227.170321,180.362381 227.287994,181.159805 C227.407887,181.95723 227.62103,182.648035 227.927423,183.23 C228.231595,183.811965 228.640119,184.25177 229.148554,184.544973 C229.659208,184.840398 230.305298,184.902593 231.086821,184.736 C232.345696,184.469451 233.484679,183.680912 234.501548,182.370381 C235.522857,181.05985 236.406512,179.556071 237.154732,177.859044 C237.900732,176.162018 238.504637,174.445 238.964226,172.707991 C239.423815,170.968761 239.719107,169.538283 239.856762,168.416558 L243.653369,151.057575 C242.26128,151.353 240.904714,151.986053 239.579232,152.958956 C238.25597,153.929637 237.010417,155.126885 235.840351,156.555142 C234.670286,157.981177 233.59125,159.556035 232.607685,161.279717 C231.624119,163.003398 230.656095,165.075814 229.705833,167.499186 C228.755571,169.922558 228.08728,172.017186 227.696518,173.78085 C227.305756,175.546735 227.112595,177.17046 227.112595,178.649805 L227.112595,178.649805 Z" id="Fill-17"></path>
                    <path d="M287.878292,173.092265 C287.878292,172.648018 287.911595,172.010522 287.980423,171.177558 C288.04925,170.346814 288.149161,169.387239 288.286815,168.301053 C288.42225,167.214867 288.573226,166.066487 288.744185,164.85369 C288.912923,163.643115 289.081661,162.439204 289.252619,161.241956 C289.625619,158.436531 290.082988,155.408982 290.626946,152.157088 L289.863185,152.319239 C289.456881,152.916752 288.988411,153.785257 288.464435,154.922531 C287.938238,156.059805 287.198899,157.719071 286.250857,159.900327 C285.300595,162.083805 284.086125,164.911442 282.611887,168.38546 C281.135429,171.859478 279.228244,176.135363 276.885893,181.213115 C276.2065,182.708009 275.418315,183.789752 274.519119,184.458345 C273.619923,185.126938 272.627476,185.57785 271.54178,185.808858 C270.14969,186.104283 269.03069,186.055416 268.18256,185.657814 C267.334429,185.262434 266.681679,184.627159 266.22431,183.751991 C265.76694,182.876823 265.460548,181.837283 265.307351,180.635593 C265.154155,179.431681 265.078667,178.172239 265.078667,176.852823 C265.078667,175.451221 265.163036,173.778628 265.333994,171.826159 C265.502732,169.878133 265.722536,167.814602 265.993405,165.637788 C266.266494,163.460973 266.663917,160.959858 267.190113,158.13 C267.71631,155.302363 268.173679,152.836788 268.56444,150.731053 C268.952982,148.62754 269.354845,146.692841 269.761149,144.926956 C270.167452,143.161071 270.540452,141.710602 270.880149,140.57777 C271.219845,139.409398 271.54178,138.465372 271.845952,137.750133 C272.152345,137.034894 272.500923,136.457372 272.891685,136.013124 C273.280226,135.571097 273.748696,135.231248 274.290435,134.995796 C274.832173,134.760345 275.527107,134.551549 276.377458,134.371628 C277.667417,134.098416 278.675405,133.927381 279.403643,133.856301 C280.134101,133.789664 280.67806,133.878513 281.033298,134.127292 C281.390756,134.378292 281.601679,134.802549 281.670506,135.406726 C281.737113,136.008681 281.770417,136.841646 281.770417,137.901177 C281.770417,138.483142 281.745994,139.158398 281.694929,139.922504 C281.643863,140.686611 281.568375,141.508469 281.466244,142.385858 C281.397417,143.258805 281.295286,144.153965 281.162071,145.071336 C280.922286,146.837221 280.786851,147.754593 280.753548,147.830115 C280.278417,150.262372 279.785524,152.970062 279.277089,155.955407 L279.836589,156.455186 C279.905417,156.33746 280.353905,155.33346 281.186494,153.445407 C282.019083,151.555133 282.91606,149.66708 283.884083,147.783469 C284.849887,145.899858 285.893399,143.920735 287.014619,141.85054 C288.133619,139.778124 289.201554,137.932274 290.220643,136.31077 C291.204208,134.695929 292.24772,133.309876 293.351179,132.150389 C294.452417,130.993124 295.766798,130.249009 297.294321,129.924708 C298.719714,129.620398 299.940845,129.782549 300.957714,130.404496 C301.976804,131.026442 302.485238,132.110407 302.485238,133.651947 C302.485238,134.989133 302.398649,136.273009 302.229911,137.508018 C302.027869,139.093982 301.823607,140.302336 301.621565,141.13308 C301.38178,142.074885 301.110911,143.227708 300.806738,144.59377 C300.569173,145.77769 300.145107,147.494708 299.532321,149.749265 C299.432411,150.113549 299.33028,150.631097 299.228149,151.304133 C299.192625,151.51515 299.177083,151.655088 299.177083,151.723947 L299.736583,152.223726 C299.805411,152.103779 300.280542,151.104221 301.161976,149.222832 C302.045631,147.339221 303.002554,145.446726 304.037185,143.549788 C305.071815,141.648407 306.175274,139.651513 307.345339,137.552442 C308.515405,135.453372 309.609982,133.591973 310.629071,131.970469 C311.612637,130.393389 312.596202,129.027327 313.579768,127.874504 C314.563333,126.723903 315.768923,125.995336 317.192095,125.693248 C318.788446,125.353398 320.136131,125.486673 321.239589,126.093071 C322.343048,126.695027 322.893667,127.770106 322.893667,129.311646 C322.893667,131.677265 322.775994,133.94515 322.538429,136.119743 C322.300863,138.294336 321.943405,140.715487 321.468274,143.387637 C320.993143,146.057566 320.635685,148.474274 320.400339,150.631097 C320.162774,152.78792 320.042881,155.04692 320.042881,157.41254 C320.042881,159.262832 320.280446,160.719965 320.755577,161.783938 C321.230708,162.847912 321.80797,163.305487 322.487363,163.163327 C323.20006,163.010062 323.94606,162.699088 324.725363,162.223743 C325.506887,161.748398 326.303952,161.186425 327.11656,160.533381 C327.931387,159.880336 328.728452,159.153991 329.509976,158.354345 C330.28928,157.554699 331.03528,156.737283 331.747976,155.899876 C333.410935,153.969619 335.058351,151.839451 336.685786,149.504929 L337.551679,161.390779 C336.057458,162.86346 334.572119,164.371681 333.097881,165.922106 C331.621423,167.472531 330.060595,168.925221 328.415399,170.280177 C326.770202,171.632912 324.962929,172.841265 322.995798,173.903018 C321.028667,174.96477 318.806208,175.757752 316.328423,176.284186 C315.107292,176.544071 314.079321,176.370814 313.248952,175.766637 C312.418583,175.16246 311.748071,174.216212 311.239637,172.927894 C310.731202,171.637354 310.364863,170.069159 310.14506,168.221088 C309.923036,166.373018 309.814244,164.33392 309.814244,162.103796 C309.814244,159.946973 309.891952,157.643549 310.042929,155.195743 C310.196125,152.747938 310.407048,150.262372 310.680137,147.736823 L309.916375,147.898973 L299.585607,176.253088 C298.701952,177.856823 297.718387,179.020752 296.63269,179.740434 C295.546994,180.460115 294.290339,180.971 292.867167,181.273088 C291.77925,181.504097 290.915577,181.40192 290.271708,180.959894 C289.625619,180.52231 289.126065,179.887035 288.768607,179.056292 C288.413369,178.225549 288.175804,177.279301 288.055911,176.217549 C287.938238,175.155796 287.878292,174.114035 287.878292,173.092265" id="Fill-18"></path>
                    <path d="M348.646208,167.050496 L348.646208,167.970088 C348.646208,174.174009 348.113351,179.920354 347.045417,185.209124 C345.981923,190.495673 344.55653,195.120292 342.773679,199.076319 C340.993048,203.034566 338.945988,206.230929 336.641381,208.663186 C334.334554,211.097664 331.938917,212.577009 329.458911,213.105664 C327.525083,213.516593 325.91319,213.381097 324.623232,212.699177 C323.335494,212.015035 322.307524,210.942177 321.543762,209.485044 C320.78222,208.021248 320.240482,206.239814 319.916327,204.140743 C319.594393,202.03723 319.432315,199.773788 319.432315,197.348195 C319.432315,195.939929 319.654339,194.300655 320.096167,192.437035 C320.535774,190.573416 321.130798,188.58985 321.874577,186.488558 C322.622798,184.387265 323.462048,182.230442 324.394548,180.022531 C325.329268,177.812398 326.28619,175.657796 327.271976,173.556504 C329.576583,168.665336 332.207565,163.567593 335.160482,158.265496 C335.537923,155.622221 335.924244,152.910088 336.319446,150.131319 C336.712429,147.35477 337.216423,144.600434 337.824768,141.877195 C338.435333,139.153956 339.372274,136.233027 340.64225,133.116628 C341.912226,129.998009 343.271012,127.425814 344.714167,125.400044 C346.159542,123.376496 347.889107,121.641708 349.907304,120.200124 C351.9255,118.762982 354.361101,117.738991 357.214107,117.132593 C359.281149,116.692788 361.212756,116.563956 363.008929,116.743876 C364.802881,116.928239 366.38147,117.505761 367.735815,118.483106 C369.090161,119.45823 370.160315,120.862053 370.939619,122.694575 C371.718923,124.529319 372.107464,126.899381 372.107464,129.80254 C372.107464,132.892283 371.767768,135.380071 371.092815,137.265903 C370.073726,140.077991 368.763786,142.607982 367.154113,144.855876 C365.54444,147.10377 363.632815,149.293912 361.412577,151.426301 C359.19456,153.556469 356.561357,155.604451 353.51297,157.565805 C353.51297,157.565805 348.992565,160.206858 347.882446,160.484513 C347.882446,162.012726 348.453048,164.596027 348.646208,167.050496 L348.646208,167.050496 Z M329.154738,195.888841 C329.154738,196.159832 329.212464,196.58631 329.332357,197.168274 C329.45003,197.750239 329.645411,198.314434 329.9185,198.865301 C330.189369,199.416168 330.544607,199.880407 330.986435,200.260239 C331.426042,200.63785 331.97,200.757796 332.613869,200.62008 C333.191131,200.497912 333.666262,200.084761 334.039262,199.38285 C334.412262,198.676496 334.718655,197.776894 334.95622,196.681823 C335.191565,195.58231 335.362524,194.365071 335.464655,193.027885 C335.566786,191.688478 335.644494,190.322416 335.70444,188.925257 C335.762167,187.528097 335.799911,186.17092 335.817673,184.851504 C335.835435,183.529867 335.88206,182.337062 335.953107,181.27531 C336.059679,179.431681 336.139607,177.867929 336.195113,176.590717 C336.250619,175.313504 336.292804,174.249531 336.330548,173.398796 C336.361631,172.443664 336.397155,171.615142 336.430458,170.911009 C335.786589,172.166009 335.160482,173.594265 334.547696,175.198 C333.939351,176.801735 333.362089,178.458779 332.818131,180.166912 C332.274173,181.872823 331.7835,183.572071 331.341673,185.257991 C330.902065,186.943912 330.520185,188.509885 330.19603,189.949248 C329.874095,191.388611 329.618768,192.630283 329.432268,193.669823 C329.247988,194.707142 329.154738,195.446814 329.154738,195.888841 L329.154738,195.888841 Z M347.365131,154.929195 C349.40331,153.509823 351.168399,152.03492 352.660399,150.500044 C354.088012,148.980717 355.342446,147.416965 356.430363,145.804345 C356.87219,145.646637 357.924583,143.909628 359.585321,140.599982 C360.706542,137.832319 361.421458,135.739912 361.725631,134.327204 C361.894369,133.569761 362.005381,132.699035 362.056446,131.719469 C362.107512,130.739903 362.005381,129.846965 361.752274,129.047319 C361.499167,128.247673 361.05956,127.610177 360.435673,127.134832 C359.807345,126.659487 358.937012,126.541761 357.822452,126.777212 C356.565798,127.045982 355.46456,127.616841 354.512077,128.492009 C353.561815,129.369398 352.738107,130.455584 352.040952,131.752788 C351.346018,133.052212 350.768756,134.538221 350.311387,136.213035 C349.851798,137.88785 349.31006,139.951381 348.679512,142.401407 C348.053405,144.851434 347.675964,147.06823 347.551631,149.049575 C347.427298,151.03092 347.365131,152.990053 347.365131,154.929195 L347.365131,154.929195 Z" id="Fill-19"></path>
                </g>
            </g>
        </g>
    </g>
</svg>