<?xml version="1.0" encoding="UTF-8" standalone="no"?>
<svg width="98px" height="96px" viewBox="0 0 98 96" version="1.1" xmlns="http://www.w3.org/2000/svg" xmlns:xlink="http://www.w3.org/1999/xlink" xmlns:sketch="http://www.bohemiancoding.com/sketch/ns">
    <!-- Generator: Sketch 3.3.2 (12043) - http://www.bohemiancoding.com/sketch -->
    <title>calendar-3-icon</title>
    <desc>Created with Sketch.</desc>
    <defs></defs>
    <g id="Page-1" stroke="none" stroke-width="1" fill="none" fill-rule="evenodd" sketch:type="MSPage">
        <g id="Desktop---Homepage-1-2" sketch:type="MSArtboardGroup" transform="translate(-667.000000, -1072.000000)" fill="#707070">
            <path d="M668,1078.25537 C668,1080.77692 667.873001,1147.16202 668,1156.13428 C668.126999,1165.10654 675.202478,1167.98308 678.766537,1167.98308 L724.686176,1167.98308 C730.290773,1167.98308 735.663511,1165.75859 739.613705,1161.80307 L758.189222,1144.44939 C762.105659,1140.52775 764.303732,1135.22387 764.303732,1129.6958 C764.303732,1129.6958 764.303734,1089.98853 764.303734,1082.7583 C764.303734,1075.52808 762.030273,1072 752.098633,1072 C742.166992,1072 700.164551,1072 674.19751,1072 C670.657227,1072 668,1074.85229 668,1078.25537 Z M730.932616,1133.13525 C730.932616,1133.13525 737.374634,1154.21622 721.871234,1154.21622 C708.91676,1154.21622 684.905518,1154.21621 683.007812,1154.21622 C681.110107,1154.21622 679.84466,1153.04297 679.84466,1151.22412 L679.84466,1102.14233 C679.84466,1097.86963 682.812478,1096.43692 684.296387,1096.43692 L748.991943,1096.43692 C749.994629,1096.43692 752,1097.848 752,1100.00757 C752.000001,1106.32483 752.000002,1119.04695 752.000002,1121.58838 C752.000002,1138.67188 730.932616,1133.13525 730.932616,1133.13525 Z M701.826745,1122.09037 L687.683985,1122.09037 L687.683985,1108.02054 L701.826745,1108.02054 L701.826745,1122.09037 L701.826745,1122.09037 Z M723.194905,1108.02054 L709.052385,1108.02054 L709.052385,1122.09037 L723.194905,1122.09037 L723.194905,1108.02054 L723.194905,1108.02054 Z M744.563305,1108.02054 L730.420545,1108.02054 L730.420545,1122.09037 L744.563305,1122.09037 L744.563305,1108.02054 L744.563305,1108.02054 Z M701.826745,1128.56253 L687.683985,1128.56253 L687.683985,1142.6326 L701.826745,1142.6326 L701.826745,1128.56253 L701.826745,1128.56253 Z M723.194905,1128.56253 L709.052385,1128.56253 L709.052385,1142.6326 L723.194905,1142.6326 L723.194905,1128.56253 L723.194905,1128.56253 Z" id="calendar-3-icon" sketch:type="MSShapeGroup"></path>
        </g>
    </g>
</svg>