<?xml version="1.0" encoding="UTF-8" standalone="no"?>
<svg width="96px" height="96px" viewBox="0 0 96 96" version="1.1" xmlns="http://www.w3.org/2000/svg" xmlns:xlink="http://www.w3.org/1999/xlink" xmlns:sketch="http://www.bohemiancoding.com/sketch/ns">
    <!-- Generator: Sketch 3.3.2 (12043) - http://www.bohemiancoding.com/sketch -->
    <title>chat</title>
    <desc>Created with Sketch.</desc>
    <defs></defs>
    <g id="Page-1" stroke="none" stroke-width="1" fill="none" fill-rule="evenodd" sketch:type="MSPage">
        <g id="Desktop---Homepage-1-2" sketch:type="MSArtboardGroup" transform="translate(-224.000000, -1072.000000)" fill="#707070">
            <g id="Details" sketch:type="MSLayerGroup" transform="translate(118.000000, 1072.000000)">
                <g id="What" sketch:type="MSShapeGroup">
                    <path d="M196.549,49.404 C199.894,44.316 201.865,38.154 201.865,31.5 C201.865,14.103 188.464,0 171.934,0 C157.588,0 145.615,10.626 142.693,24.801 C140.56,24.291 138.346,24 136.066,24 C119.536,24 106.135,38.103 106.135,55.5 C106.135,62.154 108.106,68.316 111.451,73.404 L106,96 L134.809,86.934 C135.229,86.952 135.643,87 136.066,87 C150.412,87 162.385,76.374 165.307,62.199 C167.44,62.709 169.654,63 171.934,63 C172.357,63 172.771,62.952 173.191,62.934 L202,72 L196.549,49.404 L196.549,49.404 Z M153.946,56.637 L153.946,56.643 C153.844,58.542 153.496,60.369 152.926,62.085 C152.923,62.094 152.917,62.106 152.914,62.115 C152.728,62.673 152.521,63.216 152.293,63.75 C152.281,63.777 152.266,63.804 152.254,63.831 C152.032,64.341 151.792,64.839 151.531,65.322 C151.501,65.382 151.468,65.436 151.435,65.493 C151.189,65.943 150.928,66.381 150.649,66.804 C150.586,66.903 150.517,66.993 150.451,67.089 C150.193,67.467 149.929,67.836 149.65,68.19 C149.536,68.334 149.419,68.466 149.302,68.604 C149.053,68.901 148.801,69.198 148.534,69.477 C148.354,69.669 148.162,69.849 147.973,70.032 C147.757,70.242 147.544,70.455 147.319,70.653 C147.031,70.905 146.731,71.139 146.431,71.373 C146.284,71.484 146.146,71.607 145.996,71.715 C145.555,72.036 145.102,72.333 144.634,72.609 C144.613,72.624 144.595,72.639 144.574,72.651 C142.534,73.854 140.263,74.637 137.848,74.898 C137.815,74.901 137.782,74.901 137.749,74.904 C137.245,74.955 136.741,74.994 136.225,75 L136.147,74.994 L136.132,74.994 C136.087,74.994 136.045,75 136,75 C135.361,75 134.731,74.961 134.11,74.892 L133.222,74.853 L122.644,78.183 L124.339,71.157 L122.521,68.394 C119.716,64.956 118,60.45 118,55.5 C118,44.73 126.058,36 136,36 C136.012,36 136.021,36.003 136.033,36.003 C136.045,36.003 136.057,36 136.066,36 C136.663,36 137.248,36.036 137.83,36.099 C137.884,36.105 137.938,36.12 137.992,36.126 C138.505,36.189 139.015,36.27 139.516,36.378 C139.783,36.435 140.041,36.516 140.305,36.585 C140.578,36.657 140.851,36.726 141.118,36.813 C141.451,36.918 141.772,37.044 142.096,37.17 C142.24,37.227 142.39,37.272 142.534,37.332 C142.534,37.338 142.534,37.341 142.537,37.347 C149.242,40.182 154,47.232 154,55.5 C154,55.884 153.967,56.259 153.946,56.637 L153.946,56.637 Z M186.523,42.807 L183.661,47.157 L185.356,54.18 L174.778,50.853 L172.666,50.946 C172.393,50.958 172.123,50.976 171.853,50.994 L171.775,51 C169.549,50.979 167.428,50.496 165.466,49.665 C164.065,41.805 159.889,34.998 154.054,30.363 C154.6,20.142 162.397,12 171.934,12 C181.822,12 189.865,20.748 189.865,31.5 C189.865,35.574 188.71,39.483 186.523,42.807 L186.523,42.807 Z" id="chat"></path>
                </g>
            </g>
        </g>
    </g>
</svg>