<?xml version="1.0" encoding="UTF-8" standalone="no"?>
<svg width="116px" height="116px" viewBox="0 0 116 116" version="1.1" xmlns="http://www.w3.org/2000/svg" xmlns:xlink="http://www.w3.org/1999/xlink" xmlns:sketch="http://www.bohemiancoding.com/sketch/ns">
    <!-- Generator: Sketch 3.3.2 (12043) - http://www.bohemiancoding.com/sketch -->
    <title>Shape</title>
    <desc>Created with Sketch.</desc>
    <defs></defs>
    <g id="Page-1" stroke="none" stroke-width="1" fill="none" fill-rule="evenodd" sketch:type="MSPage">
        <g id="Desktop---Homepage-1-2" sketch:type="MSArtboardGroup" transform="translate(-808.000000, -2963.000000)" fill="#FFFFFF">
            <g id="Social" sketch:type="MSLayerGroup" transform="translate(0.000000, 2793.000000)">
                <g id="Facebook" transform="translate(804.000000, 170.000000)" sketch:type="MSShapeGroup">
                    <g id="facebook-with-circle" transform="translate(4.000000, 0.000000)">
                        <path d="M57.6417708,3.55271368e-14 C25.8067012,3.55271368e-14 0,25.8067012 0,57.6417708 C0,89.4768405 25.8067012,115.283542 57.6417708,115.283542 C89.4768405,115.283542 115.283542,89.4768405 115.283542,57.6417708 C115.283542,25.8067012 89.4768405,3.55271368e-14 57.6417708,3.55271368e-14 L57.6417708,3.55271368e-14 Z M71.2956653,39.8328654 L62.6313866,39.8328654 C61.6046426,39.8328654 60.4638159,41.1838444 60.4638159,42.9791454 L60.4638159,49.2356793 L71.3016697,49.2356793 L69.6624818,58.158145 L60.4638159,58.158145 L60.4638159,84.9435554 L50.2384059,84.9435554 L50.2384059,58.158145 L40.9616834,58.158145 L40.9616834,49.2356793 L50.2384059,49.2356793 L50.2384059,43.9878764 C50.2384059,36.4584201 55.4621914,30.3399863 62.6313866,30.3399863 L71.2956653,30.3399863 L71.2956653,39.8328654 L71.2956653,39.8328654 Z" id="Shape"></path>
                    </g>
                </g>
            </g>
        </g>
    </g>
</svg>