<?xml version="1.0" encoding="UTF-8" standalone="no"?>
<svg width="84px" height="96px" viewBox="0 0 84 96" version="1.1" xmlns="http://www.w3.org/2000/svg" xmlns:xlink="http://www.w3.org/1999/xlink" xmlns:sketch="http://www.bohemiancoding.com/sketch/ns">
    <!-- Generator: Sketch 3.3.2 (12043) - http://www.bohemiancoding.com/sketch -->
    <title>map-marker</title>
    <desc>Created with Sketch.</desc>
    <defs></defs>
    <g id="Page-1" stroke="none" stroke-width="1" fill="none" fill-rule="evenodd" sketch:type="MSPage">
        <g id="Desktop---Homepage-1-2" sketch:type="MSArtboardGroup" transform="translate(-1132.000000, -1072.000000)" fill="#707070">
            <g id="Details" sketch:type="MSLayerGroup" transform="translate(118.000000, 1072.000000)">
                <g id="Where" transform="translate(902.000000, 0.000000)" sketch:type="MSShapeGroup">
                    <g id="map-marker" transform="translate(112.000000, 0.000000)">
                        <path d="M42,0.003 C18.801,0.03 0,18.723 0,41.778 C0,74.928 30.117,91.62 39.051,95.493 C39.828,95.829 40.653,96 41.475,96 C41.652,96 41.826,95.961 42,95.946 C42.174,95.961 42.348,96 42.525,96 C43.347,96 44.172,95.829 44.946,95.493 C53.883,91.62 84,74.928 84,41.778 C84,18.723 65.199,0.03 42,0.003 L42,0.003 Z M42.531,83.37 C42.369,83.289 42.171,83.184 42,83.097 C41.829,83.184 41.631,83.289 41.469,83.37 C33.774,79.482 12,66.312 12,41.778 C12,25.377 25.452,12.03 42,12.003 C58.548,12.03 72,25.377 72,41.778 C72,66.312 50.226,79.482 42.531,83.37 L42.531,83.37 Z" id="Fill-1"></path>
                        <path d="M42,30 C35.373,30 30,35.373 30,42 C30,48.627 35.373,54 42,54 C48.627,54 54,48.627 54,42 C54,35.373 48.627,30 42,30" id="Fill-2"></path>
                    </g>
                </g>
            </g>
        </g>
    </g>
</svg>