<?xml version="1.0" encoding="UTF-8" standalone="no"?>
<svg width="116px" height="116px" viewBox="0 0 116 116" version="1.1" xmlns="http://www.w3.org/2000/svg" xmlns:xlink="http://www.w3.org/1999/xlink" xmlns:sketch="http://www.bohemiancoding.com/sketch/ns">
    <!-- Generator: Sketch 3.3.2 (12043) - http://www.bohemiancoding.com/sketch -->
    <title>twitter-with-circle</title>
    <desc>Created with Sketch.</desc>
    <defs></defs>
    <g id="Page-1" stroke="none" stroke-width="1" fill="none" fill-rule="evenodd" sketch:type="MSPage">
        <g id="Desktop---Homepage-1-2" sketch:type="MSArtboardGroup" transform="translate(-520.000000, -2963.000000)" fill="#FFFFFF">
            <g id="Social" sketch:type="MSLayerGroup" transform="translate(0.000000, 2793.000000)">
                <g id="Twitter" transform="translate(511.000000, 170.000000)" sketch:type="MSShapeGroup">
                    <g id="twitter-with-circle" transform="translate(9.000000, 0.000000)">
                        <path d="M57.6417708,3.55271368e-14 C25.8067012,3.55271368e-14 0,25.8067012 0,57.6417708 C0,89.4768405 25.8067012,115.283542 57.6417708,115.283542 C89.4768405,115.283542 115.283542,89.4768405 115.283542,57.6417708 C115.283542,25.8067012 89.4768405,3.55271368e-14 57.6417708,3.55271368e-14 L57.6417708,3.55271368e-14 Z M81.088762,47.2182173 C81.1127794,47.7105741 81.1187837,48.2029309 81.1187837,48.6832789 C81.1187837,63.6941568 69.7045123,80.9926924 48.821379,80.9926924 C42.408732,80.9926924 36.440407,79.1193348 31.4207695,75.8889939 C32.3034091,75.9970722 33.2100661,76.0391027 34.1287318,76.0391027 C39.4485869,76.0391027 44.3421331,74.231793 48.2269483,71.1815826 C43.2613499,71.085513 39.0703128,67.8071373 37.6232642,63.3038739 C38.3137646,63.4299653 39.022278,63.5020175 39.7548088,63.5020175 C40.7875572,63.5020175 41.7962882,63.3639175 42.7449757,63.1057304 C37.551212,62.0609733 33.636375,57.473649 33.636375,51.9736634 L33.636375,51.8355633 C35.1674846,52.6821768 36.9207551,53.198551 38.7821039,53.2585945 C35.7318936,51.2171151 33.7324446,47.7466002 33.7324446,43.8017415 C33.7324446,41.724236 34.2908493,39.7668175 35.2695585,38.0916036 C40.8716181,44.9605812 49.2296749,49.4758533 58.6685149,49.9622057 C58.4703713,49.1276009 58.3743017,48.2629744 58.3743017,47.3683261 C58.3743017,41.1057878 63.4539827,36.0140981 69.7285297,36.0140981 C72.9888923,36.0140981 75.9430331,37.3950988 78.0145342,39.6047 C80.6024095,39.0883258 83.0281674,38.1516471 85.2197556,36.8487029 C84.3731421,39.4966217 82.5778411,41.724236 80.2301398,43.1352585 C82.5298063,42.853054 84.7153901,42.2466145 86.7508651,41.3399575 C85.2317643,43.6156066 83.3043676,45.6210599 81.088762,47.2182173 L81.088762,47.2182173 Z" id="Shape"></path>
                    </g>
                </g>
            </g>
        </g>
    </g>
</svg>